<mxfile host="app.diagrams.net" modified="2023-05-01T04:21:24.386Z" agent="Mozilla/5.0 (Windows NT 10.0; Win64; x64) AppleWebKit/537.36 (KHTML, like Gecko) Chrome/112.0.0.0 Safari/537.36" etag="MfbI2BNu0pp3M5hxw9oS" version="21.2.1" type="device" pages="3">
  <diagram id="6gLXFvQwlaz6Gcjsz1Pf" name="第 3 页">
    <mxGraphModel dx="1050" dy="492" grid="1" gridSize="10" guides="1" tooltips="1" connect="1" arrows="1" fold="1" page="1" pageScale="1" pageWidth="827" pageHeight="1169" math="0" shadow="0">
      <root>
        <mxCell id="0" />
        <mxCell id="1" parent="0" />
        <mxCell id="YqvV9k2ArH22ZHcGISI6-121" value="" style="rounded=0;whiteSpace=wrap;html=1;labelPosition=center;verticalLabelPosition=top;align=center;verticalAlign=bottom;fontSize=20;spacingTop=-10;" parent="1" vertex="1">
          <mxGeometry x="328" y="10" width="402" height="380" as="geometry" />
        </mxCell>
        <mxCell id="YqvV9k2ArH22ZHcGISI6-11" value="" style="rounded=0;whiteSpace=wrap;html=1;" parent="1" vertex="1">
          <mxGeometry x="340" y="52" width="370" height="318" as="geometry" />
        </mxCell>
        <mxCell id="YqvV9k2ArH22ZHcGISI6-14" value="" style="shape=table;startSize=0;container=1;collapsible=0;childLayout=tableLayout;fontSize=16;" parent="1" vertex="1">
          <mxGeometry x="640" y="52" width="70" height="318" as="geometry" />
        </mxCell>
        <mxCell id="YqvV9k2ArH22ZHcGISI6-15" value="" style="shape=tableRow;horizontal=0;startSize=0;swimlaneHead=0;swimlaneBody=0;strokeColor=inherit;top=0;left=0;bottom=0;right=0;collapsible=0;dropTarget=0;fillColor=none;points=[[0,0.5],[1,0.5]];portConstraint=eastwest;fontSize=16;" parent="YqvV9k2ArH22ZHcGISI6-14" vertex="1">
          <mxGeometry width="70" height="30" as="geometry" />
        </mxCell>
        <mxCell id="YqvV9k2ArH22ZHcGISI6-16" value="Heap" style="shape=partialRectangle;html=1;whiteSpace=wrap;connectable=0;strokeColor=inherit;overflow=hidden;fillColor=none;top=0;left=0;bottom=0;right=0;pointerEvents=1;fontSize=16;" parent="YqvV9k2ArH22ZHcGISI6-15" vertex="1">
          <mxGeometry width="70" height="30" as="geometry">
            <mxRectangle width="70" height="30" as="alternateBounds" />
          </mxGeometry>
        </mxCell>
        <mxCell id="YqvV9k2ArH22ZHcGISI6-19" value="" style="shape=tableRow;horizontal=0;startSize=0;swimlaneHead=0;swimlaneBody=0;strokeColor=inherit;top=0;left=0;bottom=0;right=0;collapsible=0;dropTarget=0;fillColor=none;points=[[0,0.5],[1,0.5]];portConstraint=eastwest;fontSize=16;" parent="YqvV9k2ArH22ZHcGISI6-14" vertex="1">
          <mxGeometry y="30" width="70" height="40" as="geometry" />
        </mxCell>
        <mxCell id="YqvV9k2ArH22ZHcGISI6-20" value="S2 obj" style="shape=partialRectangle;html=1;whiteSpace=wrap;connectable=0;strokeColor=inherit;overflow=hidden;fillColor=none;top=0;left=0;bottom=0;right=0;pointerEvents=1;fontSize=16;" parent="YqvV9k2ArH22ZHcGISI6-19" vertex="1">
          <mxGeometry width="70" height="40" as="geometry">
            <mxRectangle width="70" height="40" as="alternateBounds" />
          </mxGeometry>
        </mxCell>
        <mxCell id="YqvV9k2ArH22ZHcGISI6-23" value="" style="shape=tableRow;horizontal=0;startSize=0;swimlaneHead=0;swimlaneBody=0;strokeColor=inherit;top=0;left=0;bottom=0;right=0;collapsible=0;dropTarget=0;fillColor=none;points=[[0,0.5],[1,0.5]];portConstraint=eastwest;fontSize=16;" parent="YqvV9k2ArH22ZHcGISI6-14" vertex="1">
          <mxGeometry y="70" width="70" height="20" as="geometry" />
        </mxCell>
        <mxCell id="YqvV9k2ArH22ZHcGISI6-24" value="" style="shape=partialRectangle;html=1;whiteSpace=wrap;connectable=0;strokeColor=inherit;overflow=hidden;fillColor=none;top=0;left=0;bottom=0;right=0;pointerEvents=1;fontSize=16;" parent="YqvV9k2ArH22ZHcGISI6-23" vertex="1">
          <mxGeometry width="70" height="20" as="geometry">
            <mxRectangle width="70" height="20" as="alternateBounds" />
          </mxGeometry>
        </mxCell>
        <mxCell id="YqvV9k2ArH22ZHcGISI6-35" style="shape=tableRow;horizontal=0;startSize=0;swimlaneHead=0;swimlaneBody=0;strokeColor=inherit;top=0;left=0;bottom=0;right=0;collapsible=0;dropTarget=0;fillColor=none;points=[[0,0.5],[1,0.5]];portConstraint=eastwest;fontSize=16;" parent="YqvV9k2ArH22ZHcGISI6-14" vertex="1">
          <mxGeometry y="90" width="70" height="40" as="geometry" />
        </mxCell>
        <mxCell id="YqvV9k2ArH22ZHcGISI6-36" value="S4 obj" style="shape=partialRectangle;html=1;whiteSpace=wrap;connectable=0;strokeColor=inherit;overflow=hidden;fillColor=none;top=0;left=0;bottom=0;right=0;pointerEvents=1;fontSize=16;" parent="YqvV9k2ArH22ZHcGISI6-35" vertex="1">
          <mxGeometry width="70" height="40" as="geometry">
            <mxRectangle width="70" height="40" as="alternateBounds" />
          </mxGeometry>
        </mxCell>
        <mxCell id="YqvV9k2ArH22ZHcGISI6-33" style="shape=tableRow;horizontal=0;startSize=0;swimlaneHead=0;swimlaneBody=0;strokeColor=inherit;top=0;left=0;bottom=0;right=0;collapsible=0;dropTarget=0;fillColor=none;points=[[0,0.5],[1,0.5]];portConstraint=eastwest;fontSize=16;" parent="YqvV9k2ArH22ZHcGISI6-14" vertex="1">
          <mxGeometry y="130" width="70" height="40" as="geometry" />
        </mxCell>
        <mxCell id="YqvV9k2ArH22ZHcGISI6-34" style="shape=partialRectangle;html=1;whiteSpace=wrap;connectable=0;strokeColor=inherit;overflow=hidden;fillColor=none;top=0;left=0;bottom=0;right=0;pointerEvents=1;fontSize=16;" parent="YqvV9k2ArH22ZHcGISI6-33" vertex="1">
          <mxGeometry width="70" height="40" as="geometry">
            <mxRectangle width="70" height="40" as="alternateBounds" />
          </mxGeometry>
        </mxCell>
        <mxCell id="YqvV9k2ArH22ZHcGISI6-31" style="shape=tableRow;horizontal=0;startSize=0;swimlaneHead=0;swimlaneBody=0;strokeColor=inherit;top=0;left=0;bottom=0;right=0;collapsible=0;dropTarget=0;fillColor=none;points=[[0,0.5],[1,0.5]];portConstraint=eastwest;fontSize=16;" parent="YqvV9k2ArH22ZHcGISI6-14" vertex="1">
          <mxGeometry y="170" width="70" height="20" as="geometry" />
        </mxCell>
        <mxCell id="YqvV9k2ArH22ZHcGISI6-32" style="shape=partialRectangle;html=1;whiteSpace=wrap;connectable=0;strokeColor=inherit;overflow=hidden;fillColor=none;top=0;left=0;bottom=0;right=0;pointerEvents=1;fontSize=16;" parent="YqvV9k2ArH22ZHcGISI6-31" vertex="1">
          <mxGeometry width="70" height="20" as="geometry">
            <mxRectangle width="70" height="20" as="alternateBounds" />
          </mxGeometry>
        </mxCell>
        <mxCell id="YqvV9k2ArH22ZHcGISI6-106" style="shape=tableRow;horizontal=0;startSize=0;swimlaneHead=0;swimlaneBody=0;strokeColor=inherit;top=0;left=0;bottom=0;right=0;collapsible=0;dropTarget=0;fillColor=none;points=[[0,0.5],[1,0.5]];portConstraint=eastwest;fontSize=16;" parent="YqvV9k2ArH22ZHcGISI6-14" vertex="1">
          <mxGeometry y="190" width="70" height="38" as="geometry" />
        </mxCell>
        <mxCell id="YqvV9k2ArH22ZHcGISI6-107" value="obj" style="shape=partialRectangle;html=1;whiteSpace=wrap;connectable=0;strokeColor=inherit;overflow=hidden;fillColor=none;top=0;left=0;bottom=0;right=0;pointerEvents=1;fontSize=16;" parent="YqvV9k2ArH22ZHcGISI6-106" vertex="1">
          <mxGeometry width="70" height="38" as="geometry">
            <mxRectangle width="70" height="38" as="alternateBounds" />
          </mxGeometry>
        </mxCell>
        <mxCell id="YqvV9k2ArH22ZHcGISI6-27" style="shape=tableRow;horizontal=0;startSize=0;swimlaneHead=0;swimlaneBody=0;strokeColor=inherit;top=0;left=0;bottom=0;right=0;collapsible=0;dropTarget=0;fillColor=none;points=[[0,0.5],[1,0.5]];portConstraint=eastwest;fontSize=16;" parent="YqvV9k2ArH22ZHcGISI6-14" vertex="1">
          <mxGeometry y="228" width="70" height="30" as="geometry" />
        </mxCell>
        <mxCell id="YqvV9k2ArH22ZHcGISI6-28" style="shape=partialRectangle;html=1;whiteSpace=wrap;connectable=0;strokeColor=inherit;overflow=hidden;fillColor=none;top=0;left=0;bottom=0;right=0;pointerEvents=1;fontSize=16;" parent="YqvV9k2ArH22ZHcGISI6-27" vertex="1">
          <mxGeometry width="70" height="30" as="geometry">
            <mxRectangle width="70" height="30" as="alternateBounds" />
          </mxGeometry>
        </mxCell>
        <mxCell id="YqvV9k2ArH22ZHcGISI6-101" style="shape=tableRow;horizontal=0;startSize=0;swimlaneHead=0;swimlaneBody=0;strokeColor=inherit;top=0;left=0;bottom=0;right=0;collapsible=0;dropTarget=0;fillColor=none;points=[[0,0.5],[1,0.5]];portConstraint=eastwest;fontSize=16;" parent="YqvV9k2ArH22ZHcGISI6-14" vertex="1">
          <mxGeometry y="258" width="70" height="40" as="geometry" />
        </mxCell>
        <mxCell id="YqvV9k2ArH22ZHcGISI6-102" value="S3 obj" style="shape=partialRectangle;html=1;whiteSpace=wrap;connectable=0;strokeColor=inherit;overflow=hidden;fillColor=none;top=0;left=0;bottom=0;right=0;pointerEvents=1;fontSize=16;" parent="YqvV9k2ArH22ZHcGISI6-101" vertex="1">
          <mxGeometry width="70" height="40" as="geometry">
            <mxRectangle width="70" height="40" as="alternateBounds" />
          </mxGeometry>
        </mxCell>
        <mxCell id="YqvV9k2ArH22ZHcGISI6-96" style="shape=tableRow;horizontal=0;startSize=0;swimlaneHead=0;swimlaneBody=0;strokeColor=inherit;top=0;left=0;bottom=0;right=0;collapsible=0;dropTarget=0;fillColor=none;points=[[0,0.5],[1,0.5]];portConstraint=eastwest;fontSize=16;" parent="YqvV9k2ArH22ZHcGISI6-14" vertex="1">
          <mxGeometry y="298" width="70" height="20" as="geometry" />
        </mxCell>
        <mxCell id="YqvV9k2ArH22ZHcGISI6-97" style="shape=partialRectangle;html=1;whiteSpace=wrap;connectable=0;strokeColor=inherit;overflow=hidden;fillColor=none;top=0;left=0;bottom=0;right=0;pointerEvents=1;fontSize=16;" parent="YqvV9k2ArH22ZHcGISI6-96" vertex="1">
          <mxGeometry width="70" height="20" as="geometry">
            <mxRectangle width="70" height="20" as="alternateBounds" />
          </mxGeometry>
        </mxCell>
        <mxCell id="YqvV9k2ArH22ZHcGISI6-1" value="party1" style="shape=actor;whiteSpace=wrap;html=1;labelPosition=center;verticalLabelPosition=bottom;align=center;verticalAlign=top;" parent="1" vertex="1">
          <mxGeometry x="10" y="230" width="30" height="40" as="geometry" />
        </mxCell>
        <mxCell id="YqvV9k2ArH22ZHcGISI6-4" value="rust&lt;br&gt;compiler" style="rounded=1;whiteSpace=wrap;html=1;" parent="1" vertex="1">
          <mxGeometry x="190" y="128" width="60" height="30" as="geometry" />
        </mxCell>
        <mxCell id="YqvV9k2ArH22ZHcGISI6-5" value="GPA&lt;br&gt;analyzer" style="rounded=1;whiteSpace=wrap;html=1;" parent="1" vertex="1">
          <mxGeometry x="190" y="191" width="60" height="30" as="geometry" />
        </mxCell>
        <mxCell id="YqvV9k2ArH22ZHcGISI6-84" style="edgeStyle=orthogonalEdgeStyle;rounded=0;orthogonalLoop=1;jettySize=auto;html=1;exitX=0;exitY=0;exitDx=10;exitDy=0;exitPerimeter=0;" parent="1" source="YqvV9k2ArH22ZHcGISI6-6" edge="1">
          <mxGeometry relative="1" as="geometry">
            <mxPoint x="290" y="108" as="sourcePoint" />
            <mxPoint x="521" y="128" as="targetPoint" />
            <Array as="points">
              <mxPoint x="290" y="123" />
              <mxPoint x="290" y="80" />
              <mxPoint x="521" y="80" />
            </Array>
          </mxGeometry>
        </mxCell>
        <mxCell id="YqvV9k2ArH22ZHcGISI6-6" value="exe" style="shape=note;whiteSpace=wrap;html=1;backgroundOutline=1;darkOpacity=0.05;size=10;" parent="1" vertex="1">
          <mxGeometry x="281" y="123" width="30" height="40" as="geometry" />
        </mxCell>
        <mxCell id="YqvV9k2ArH22ZHcGISI6-7" value="GPA" style="shape=note;whiteSpace=wrap;html=1;backgroundOutline=1;darkOpacity=0.05;size=10;" parent="1" vertex="1">
          <mxGeometry x="281" y="186" width="30" height="40" as="geometry" />
        </mxCell>
        <mxCell id="YqvV9k2ArH22ZHcGISI6-8" value="access&lt;br&gt;list" style="shape=note;whiteSpace=wrap;html=1;backgroundOutline=1;darkOpacity=0.05;size=10;" parent="1" vertex="1">
          <mxGeometry x="275" y="277" width="42" height="40" as="geometry" />
        </mxCell>
        <mxCell id="YqvV9k2ArH22ZHcGISI6-59" value="" style="group" parent="1" vertex="1" connectable="0">
          <mxGeometry x="84" y="124" width="100" height="90" as="geometry" />
        </mxCell>
        <mxCell id="YqvV9k2ArH22ZHcGISI6-2" value="src" style="shape=document;whiteSpace=wrap;html=1;boundedLbl=1;size=0.125;" parent="YqvV9k2ArH22ZHcGISI6-59" vertex="1">
          <mxGeometry x="30" y="30" width="40" height="60" as="geometry" />
        </mxCell>
        <mxCell id="YqvV9k2ArH22ZHcGISI6-3" value="microservice1" style="text;html=1;align=center;verticalAlign=middle;resizable=0;points=[];autosize=1;strokeColor=none;fillColor=none;" parent="YqvV9k2ArH22ZHcGISI6-59" vertex="1">
          <mxGeometry width="100" height="30" as="geometry" />
        </mxCell>
        <mxCell id="YqvV9k2ArH22ZHcGISI6-67" value="" style="endArrow=classic;html=1;rounded=0;entryX=1.028;entryY=1.053;entryDx=0;entryDy=0;entryPerimeter=0;" parent="YqvV9k2ArH22ZHcGISI6-59" edge="1">
          <mxGeometry width="50" height="50" relative="1" as="geometry">
            <mxPoint x="76" y="23" as="sourcePoint" />
            <mxPoint x="102.79999999999995" y="22.590000000000032" as="targetPoint" />
          </mxGeometry>
        </mxCell>
        <mxCell id="YqvV9k2ArH22ZHcGISI6-64" value="" style="shape=flexArrow;endArrow=classic;html=1;rounded=0;endWidth=17;endSize=6.36;width=7;" parent="1" edge="1">
          <mxGeometry width="50" height="50" relative="1" as="geometry">
            <mxPoint x="50" y="230" as="sourcePoint" />
            <mxPoint x="100" y="180" as="targetPoint" />
          </mxGeometry>
        </mxCell>
        <mxCell id="YqvV9k2ArH22ZHcGISI6-65" value="" style="shape=flexArrow;endArrow=classic;html=1;rounded=0;endWidth=17;endSize=6.36;width=7;" parent="1" edge="1">
          <mxGeometry width="50" height="50" relative="1" as="geometry">
            <mxPoint x="70" y="300" as="sourcePoint" />
            <mxPoint x="250" y="300" as="targetPoint" />
          </mxGeometry>
        </mxCell>
        <mxCell id="YqvV9k2ArH22ZHcGISI6-68" value="" style="endArrow=classic;html=1;rounded=0;entryX=1.028;entryY=1.053;entryDx=0;entryDy=0;entryPerimeter=0;" parent="1" edge="1">
          <mxGeometry width="50" height="50" relative="1" as="geometry">
            <mxPoint x="159" y="207" as="sourcePoint" />
            <mxPoint x="186" y="207" as="targetPoint" />
          </mxGeometry>
        </mxCell>
        <mxCell id="YqvV9k2ArH22ZHcGISI6-69" value="" style="endArrow=classic;html=1;rounded=0;entryX=1.028;entryY=1.053;entryDx=0;entryDy=0;entryPerimeter=0;" parent="1" edge="1">
          <mxGeometry width="50" height="50" relative="1" as="geometry">
            <mxPoint x="253" y="146" as="sourcePoint" />
            <mxPoint x="280" y="146" as="targetPoint" />
          </mxGeometry>
        </mxCell>
        <mxCell id="YqvV9k2ArH22ZHcGISI6-37" value="" style="shape=table;startSize=0;container=1;collapsible=0;childLayout=tableLayout;fontSize=16;" parent="1" vertex="1">
          <mxGeometry x="340" y="252" width="110" height="118" as="geometry" />
        </mxCell>
        <mxCell id="YqvV9k2ArH22ZHcGISI6-38" value="" style="shape=tableRow;horizontal=0;startSize=0;swimlaneHead=0;swimlaneBody=0;strokeColor=inherit;top=0;left=0;bottom=0;right=0;collapsible=0;dropTarget=0;fillColor=none;points=[[0,0.5],[1,0.5]];portConstraint=eastwest;fontSize=16;" parent="YqvV9k2ArH22ZHcGISI6-37" vertex="1">
          <mxGeometry width="110" height="30" as="geometry" />
        </mxCell>
        <mxCell id="YqvV9k2ArH22ZHcGISI6-39" value="VM GPA list" style="shape=partialRectangle;html=1;whiteSpace=wrap;connectable=0;strokeColor=inherit;overflow=hidden;fillColor=none;top=0;left=0;bottom=0;right=0;pointerEvents=1;fontSize=16;" parent="YqvV9k2ArH22ZHcGISI6-38" vertex="1">
          <mxGeometry width="110" height="30" as="geometry">
            <mxRectangle width="110" height="30" as="alternateBounds" />
          </mxGeometry>
        </mxCell>
        <mxCell id="YqvV9k2ArH22ZHcGISI6-48" style="shape=tableRow;horizontal=0;startSize=0;swimlaneHead=0;swimlaneBody=0;strokeColor=inherit;top=0;left=0;bottom=0;right=0;collapsible=0;dropTarget=0;fillColor=none;points=[[0,0.5],[1,0.5]];portConstraint=eastwest;fontSize=16;" parent="YqvV9k2ArH22ZHcGISI6-37" vertex="1">
          <mxGeometry y="30" width="110" height="88" as="geometry" />
        </mxCell>
        <mxCell id="YqvV9k2ArH22ZHcGISI6-49" style="shape=partialRectangle;html=1;whiteSpace=wrap;connectable=0;strokeColor=inherit;overflow=hidden;fillColor=none;top=0;left=0;bottom=0;right=0;pointerEvents=1;fontSize=16;" parent="YqvV9k2ArH22ZHcGISI6-48" vertex="1">
          <mxGeometry width="110" height="88" as="geometry">
            <mxRectangle width="110" height="88" as="alternateBounds" />
          </mxGeometry>
        </mxCell>
        <mxCell id="YqvV9k2ArH22ZHcGISI6-70" value="" style="endArrow=classic;html=1;rounded=0;entryX=1.028;entryY=1.053;entryDx=0;entryDy=0;entryPerimeter=0;" parent="1" edge="1">
          <mxGeometry width="50" height="50" relative="1" as="geometry">
            <mxPoint x="253" y="207" as="sourcePoint" />
            <mxPoint x="280" y="207" as="targetPoint" />
          </mxGeometry>
        </mxCell>
        <mxCell id="YqvV9k2ArH22ZHcGISI6-71" value="" style="endArrow=classic;html=1;rounded=0;" parent="1" edge="1">
          <mxGeometry width="50" height="50" relative="1" as="geometry">
            <mxPoint x="318" y="207" as="sourcePoint" />
            <mxPoint x="352" y="207" as="targetPoint" />
          </mxGeometry>
        </mxCell>
        <mxCell id="YqvV9k2ArH22ZHcGISI6-54" value="GPA&lt;br&gt;checker" style="rounded=1;whiteSpace=wrap;html=1;" parent="1" vertex="1">
          <mxGeometry x="357" y="122" width="60" height="30" as="geometry" />
        </mxCell>
        <mxCell id="YqvV9k2ArH22ZHcGISI6-55" value="vm&lt;br&gt;loader" style="rounded=1;whiteSpace=wrap;html=1;" parent="1" vertex="1">
          <mxGeometry x="357" y="192" width="60" height="30" as="geometry" />
        </mxCell>
        <mxCell id="YqvV9k2ArH22ZHcGISI6-56" value="runtime&lt;br&gt;guard" style="rounded=1;whiteSpace=wrap;html=1;" parent="1" vertex="1">
          <mxGeometry x="448" y="192" width="60" height="30" as="geometry" />
        </mxCell>
        <mxCell id="YqvV9k2ArH22ZHcGISI6-57" value="?" style="html=1;whiteSpace=wrap;aspect=fixed;shape=isoRectangle;" parent="1" vertex="1">
          <mxGeometry x="453" y="122" width="50" height="30" as="geometry" />
        </mxCell>
        <mxCell id="YqvV9k2ArH22ZHcGISI6-78" value="yes" style="edgeStyle=orthogonalEdgeStyle;rounded=0;orthogonalLoop=1;jettySize=auto;html=1;exitX=0;exitY=0.5;exitDx=0;exitDy=0;startArrow=classic;startFill=1;endArrow=none;endFill=0;" parent="1" source="YqvV9k2ArH22ZHcGISI6-74" target="YqvV9k2ArH22ZHcGISI6-57" edge="1">
          <mxGeometry relative="1" as="geometry" />
        </mxCell>
        <mxCell id="YqvV9k2ArH22ZHcGISI6-74" value="" style="rounded=0;whiteSpace=wrap;html=1;" parent="1" vertex="1">
          <mxGeometry x="560" y="52" width="80" height="170" as="geometry" />
        </mxCell>
        <mxCell id="YqvV9k2ArH22ZHcGISI6-75" value="" style="rounded=0;whiteSpace=wrap;html=1;" parent="1" vertex="1">
          <mxGeometry x="560" y="280" width="80" height="90" as="geometry" />
        </mxCell>
        <mxCell id="YqvV9k2ArH22ZHcGISI6-86" value="no" style="endArrow=classic;html=1;rounded=0;exitX=1;exitY=0;exitDx=0;exitDy=0;" parent="1" edge="1">
          <mxGeometry x="-0.0526" width="50" height="50" relative="1" as="geometry">
            <mxPoint x="478" y="121" as="sourcePoint" />
            <mxPoint x="478" y="83" as="targetPoint" />
            <mxPoint as="offset" />
          </mxGeometry>
        </mxCell>
        <mxCell id="YqvV9k2ArH22ZHcGISI6-88" value="Not sure" style="endArrow=none;html=1;rounded=0;exitX=1;exitY=0;exitDx=0;exitDy=0;startArrow=classic;startFill=1;endFill=0;" parent="1" edge="1">
          <mxGeometry x="-0.0526" width="50" height="50" relative="1" as="geometry">
            <mxPoint x="477.5" y="190" as="sourcePoint" />
            <mxPoint x="477.5" y="152" as="targetPoint" />
            <mxPoint as="offset" />
          </mxGeometry>
        </mxCell>
        <mxCell id="YqvV9k2ArH22ZHcGISI6-90" value="" style="endArrow=classic;html=1;rounded=0;" parent="1" edge="1">
          <mxGeometry width="50" height="50" relative="1" as="geometry">
            <mxPoint x="460" y="260" as="sourcePoint" />
            <mxPoint x="550" y="260" as="targetPoint" />
          </mxGeometry>
        </mxCell>
        <mxCell id="YqvV9k2ArH22ZHcGISI6-91" value="" style="endArrow=classic;html=1;rounded=0;entryX=1.028;entryY=1.053;entryDx=0;entryDy=0;entryPerimeter=0;" parent="1" edge="1">
          <mxGeometry width="50" height="50" relative="1" as="geometry">
            <mxPoint x="426" y="136.5" as="sourcePoint" />
            <mxPoint x="453" y="136.5" as="targetPoint" />
          </mxGeometry>
        </mxCell>
        <mxCell id="YqvV9k2ArH22ZHcGISI6-93" value="" style="endArrow=classic;html=1;rounded=0;" parent="1" edge="1">
          <mxGeometry width="50" height="50" relative="1" as="geometry">
            <mxPoint x="386.5" y="188" as="sourcePoint" />
            <mxPoint x="386.5" y="158" as="targetPoint" />
          </mxGeometry>
        </mxCell>
        <mxCell id="YqvV9k2ArH22ZHcGISI6-94" value="" style="endArrow=classic;html=1;rounded=0;" parent="1" edge="1">
          <mxGeometry width="50" height="50" relative="1" as="geometry">
            <mxPoint x="386.5" y="228" as="sourcePoint" />
            <mxPoint x="386.5" y="248" as="targetPoint" />
          </mxGeometry>
        </mxCell>
        <mxCell id="YqvV9k2ArH22ZHcGISI6-95" value="" style="endArrow=classic;html=1;rounded=0;" parent="1" edge="1">
          <mxGeometry width="50" height="50" relative="1" as="geometry">
            <mxPoint x="490" y="226" as="sourcePoint" />
            <mxPoint x="490" y="256" as="targetPoint" />
          </mxGeometry>
        </mxCell>
        <mxCell id="YqvV9k2ArH22ZHcGISI6-98" value="" style="rounded=0;whiteSpace=wrap;html=1;" parent="1" vertex="1">
          <mxGeometry x="560" y="222" width="80" height="58" as="geometry" />
        </mxCell>
        <mxCell id="YqvV9k2ArH22ZHcGISI6-103" value="GPA&lt;br&gt;S2" style="shape=note;whiteSpace=wrap;html=1;backgroundOutline=1;darkOpacity=0.05;size=10;" parent="1" vertex="1">
          <mxGeometry x="357" y="300" width="30" height="40" as="geometry" />
        </mxCell>
        <mxCell id="YqvV9k2ArH22ZHcGISI6-104" value="GPA&lt;br&gt;42" style="shape=note;whiteSpace=wrap;html=1;backgroundOutline=1;darkOpacity=0.05;size=10;" parent="1" vertex="1">
          <mxGeometry x="380" y="317" width="30" height="40" as="geometry" />
        </mxCell>
        <mxCell id="YqvV9k2ArH22ZHcGISI6-105" value="GPA&lt;br&gt;S3" style="shape=note;whiteSpace=wrap;html=1;backgroundOutline=1;darkOpacity=0.05;size=10;" parent="1" vertex="1">
          <mxGeometry x="410" y="291" width="30" height="40" as="geometry" />
        </mxCell>
        <mxCell id="YqvV9k2ArH22ZHcGISI6-111" value="Remote&lt;br&gt;variable" style="shape=card;whiteSpace=wrap;html=1;size=12;" parent="1" vertex="1">
          <mxGeometry x="574" y="310" width="48" height="47" as="geometry" />
        </mxCell>
        <mxCell id="YqvV9k2ArH22ZHcGISI6-114" style="edgeStyle=orthogonalEdgeStyle;rounded=0;orthogonalLoop=1;jettySize=auto;html=1;exitX=1;exitY=0.5;exitDx=0;exitDy=0;exitPerimeter=0;" parent="1" source="YqvV9k2ArH22ZHcGISI6-112" target="YqvV9k2ArH22ZHcGISI6-19" edge="1">
          <mxGeometry relative="1" as="geometry" />
        </mxCell>
        <mxCell id="YqvV9k2ArH22ZHcGISI6-112" value="S2&lt;br&gt;code" style="shape=card;whiteSpace=wrap;html=1;size=12;" parent="1" vertex="1">
          <mxGeometry x="574" y="83.5" width="36" height="37" as="geometry" />
        </mxCell>
        <mxCell id="YqvV9k2ArH22ZHcGISI6-115" style="edgeStyle=orthogonalEdgeStyle;rounded=0;orthogonalLoop=1;jettySize=auto;html=1;exitX=1;exitY=0.5;exitDx=0;exitDy=0;exitPerimeter=0;" parent="1" source="YqvV9k2ArH22ZHcGISI6-113" target="YqvV9k2ArH22ZHcGISI6-35" edge="1">
          <mxGeometry relative="1" as="geometry" />
        </mxCell>
        <mxCell id="YqvV9k2ArH22ZHcGISI6-113" value="S4&lt;br&gt;code" style="shape=card;whiteSpace=wrap;html=1;size=12;" parent="1" vertex="1">
          <mxGeometry x="574" y="163" width="36" height="37" as="geometry" />
        </mxCell>
        <mxCell id="YqvV9k2ArH22ZHcGISI6-117" value="" style="edgeStyle=elbowEdgeStyle;elbow=horizontal;endArrow=classic;html=1;curved=0;rounded=0;endSize=8;startSize=8;dashed=1;" parent="1" edge="1">
          <mxGeometry width="50" height="50" relative="1" as="geometry">
            <mxPoint x="610" y="173.25" as="sourcePoint" />
            <mxPoint x="640" y="112.75" as="targetPoint" />
          </mxGeometry>
        </mxCell>
        <mxCell id="YqvV9k2ArH22ZHcGISI6-118" value="" style="edgeStyle=elbowEdgeStyle;elbow=horizontal;endArrow=classic;html=1;curved=0;rounded=0;endSize=8;startSize=8;dashed=1;" parent="1" edge="1">
          <mxGeometry width="50" height="50" relative="1" as="geometry">
            <mxPoint x="610" y="191" as="sourcePoint" />
            <mxPoint x="640" y="330" as="targetPoint" />
          </mxGeometry>
        </mxCell>
        <mxCell id="YqvV9k2ArH22ZHcGISI6-120" value="variable in guard" style="shape=card;whiteSpace=wrap;html=1;size=12;" parent="1" vertex="1">
          <mxGeometry x="568" y="227.5" width="48" height="47" as="geometry" />
        </mxCell>
        <mxCell id="YqvV9k2ArH22ZHcGISI6-123" value="&lt;font style=&quot;font-size: 16px;&quot;&gt;VM running inside TEE of machine A&lt;/font&gt;" style="text;html=1;align=center;verticalAlign=middle;resizable=0;points=[];autosize=1;strokeColor=none;fillColor=none;" parent="1" vertex="1">
          <mxGeometry x="385" y="22" width="280" height="30" as="geometry" />
        </mxCell>
      </root>
    </mxGraphModel>
  </diagram>
  <diagram id="s72o2InZWkTHPoCoT2dm" name="第 5 页">
    <mxGraphModel dx="1050" dy="492" grid="1" gridSize="10" guides="1" tooltips="1" connect="1" arrows="1" fold="1" page="1" pageScale="1" pageWidth="827" pageHeight="1169" math="0" shadow="0">
      <root>
        <mxCell id="0" />
        <mxCell id="1" parent="0" />
        <mxCell id="WEjsT_6tD-7FXT86CGt--104" value="" style="shape=mxgraph.arrows2.wedgeArrowDashed2;html=1;bendable=0;startWidth=12;stepSize=15;rounded=0;strokeColor=#D0D0D0;" parent="1" edge="1">
          <mxGeometry width="100" height="100" relative="1" as="geometry">
            <mxPoint x="430" y="350" as="sourcePoint" />
            <mxPoint x="410" y="240" as="targetPoint" />
          </mxGeometry>
        </mxCell>
        <mxCell id="fdOULRMZBfbhq__KBzwl-271" value="" style="sketch=0;pointerEvents=1;shadow=0;dashed=0;html=1;strokeColor=none;fillColor=#505050;labelPosition=center;verticalLabelPosition=bottom;verticalAlign=top;outlineConnect=0;align=center;shape=mxgraph.office.servers.server_generic;" parent="1" vertex="1">
          <mxGeometry x="254" y="355" width="81" height="121" as="geometry" />
        </mxCell>
        <mxCell id="fdOULRMZBfbhq__KBzwl-112" value="" style="rounded=0;whiteSpace=wrap;html=1;strokeWidth=4;" parent="1" vertex="1">
          <mxGeometry x="276" y="417" width="248" height="259" as="geometry" />
        </mxCell>
        <mxCell id="fdOULRMZBfbhq__KBzwl-184" value="" style="sketch=0;pointerEvents=1;shadow=0;dashed=0;html=1;strokeColor=none;fillColor=#505050;labelPosition=center;verticalLabelPosition=bottom;verticalAlign=top;outlineConnect=0;align=center;shape=mxgraph.office.devices.lcd_monitor;" parent="1" vertex="1">
          <mxGeometry x="38" y="459" width="162" height="130" as="geometry" />
        </mxCell>
        <mxCell id="fdOULRMZBfbhq__KBzwl-79" value="Machine A" style="sketch=0;pointerEvents=1;shadow=0;dashed=0;html=1;strokeColor=none;fillColor=#505050;labelPosition=center;verticalLabelPosition=bottom;verticalAlign=top;outlineConnect=0;align=center;shape=mxgraph.office.servers.server_generic;fontStyle=1" parent="1" vertex="1">
          <mxGeometry x="369" y="120" width="40" height="70" as="geometry" />
        </mxCell>
        <mxCell id="fdOULRMZBfbhq__KBzwl-80" value="Machine B" style="sketch=0;pointerEvents=1;shadow=0;dashed=0;html=1;strokeColor=none;fillColor=#505050;labelPosition=center;verticalLabelPosition=bottom;verticalAlign=top;outlineConnect=0;align=center;shape=mxgraph.office.servers.database_server;fontStyle=1" parent="1" vertex="1">
          <mxGeometry x="466" y="120" width="63" height="76" as="geometry" />
        </mxCell>
        <mxCell id="fdOULRMZBfbhq__KBzwl-81" value="Machine C" style="sketch=0;pointerEvents=1;shadow=0;dashed=0;html=1;strokeColor=none;fillColor=#505050;labelPosition=center;verticalLabelPosition=bottom;verticalAlign=top;outlineConnect=0;align=center;shape=mxgraph.office.servers.server_generic;fontStyle=1" parent="1" vertex="1">
          <mxGeometry x="563" y="120" width="40" height="70" as="geometry" />
        </mxCell>
        <mxCell id="fdOULRMZBfbhq__KBzwl-89" value="Cloud" style="sketch=0;pointerEvents=1;shadow=0;dashed=0;html=1;strokeColor=none;fillColor=#505050;labelPosition=center;verticalLabelPosition=middle;outlineConnect=0;verticalAlign=middle;align=center;shape=mxgraph.office.clouds.cloud;fillStyle=solid;fontStyle=1;fontSize=24;" parent="1" vertex="1">
          <mxGeometry x="310.30000000000007" y="20" width="327" height="150" as="geometry" />
        </mxCell>
        <mxCell id="fdOULRMZBfbhq__KBzwl-92" value="" style="group" parent="1" vertex="1" connectable="0">
          <mxGeometry x="208" y="215" width="98" height="79" as="geometry" />
        </mxCell>
        <mxCell id="fdOULRMZBfbhq__KBzwl-90" value="" style="sketch=0;pointerEvents=1;shadow=0;dashed=0;html=1;strokeColor=none;fillColor=#505050;labelPosition=center;verticalLabelPosition=bottom;verticalAlign=top;outlineConnect=0;align=center;shape=mxgraph.office.devices.lcd_monitor;" parent="fdOULRMZBfbhq__KBzwl-92" vertex="1">
          <mxGeometry x="40" width="58" height="48" as="geometry" />
        </mxCell>
        <mxCell id="fdOULRMZBfbhq__KBzwl-91" value="developer 1" style="sketch=0;pointerEvents=1;shadow=0;dashed=0;html=1;strokeColor=none;fillColor=#505050;labelPosition=center;verticalLabelPosition=bottom;verticalAlign=top;outlineConnect=0;align=center;shape=mxgraph.office.services.user_services;fontSize=14;fontStyle=1" parent="fdOULRMZBfbhq__KBzwl-92" vertex="1">
          <mxGeometry y="20" width="59" height="59" as="geometry" />
        </mxCell>
        <mxCell id="fdOULRMZBfbhq__KBzwl-94" value="" style="group" parent="1" vertex="1" connectable="0">
          <mxGeometry x="533" y="210" width="98" height="109" as="geometry" />
        </mxCell>
        <mxCell id="fdOULRMZBfbhq__KBzwl-95" value="" style="sketch=0;pointerEvents=1;shadow=0;dashed=0;html=1;strokeColor=none;fillColor=#505050;labelPosition=center;verticalLabelPosition=bottom;verticalAlign=top;outlineConnect=0;align=center;shape=mxgraph.office.devices.lcd_monitor;" parent="fdOULRMZBfbhq__KBzwl-94" vertex="1">
          <mxGeometry x="40" width="58" height="48" as="geometry" />
        </mxCell>
        <mxCell id="fdOULRMZBfbhq__KBzwl-96" value="developer 3" style="sketch=0;pointerEvents=1;shadow=0;dashed=0;html=1;strokeColor=none;fillColor=#505050;labelPosition=center;verticalLabelPosition=bottom;verticalAlign=top;outlineConnect=0;align=center;shape=mxgraph.office.services.user_services;fontSize=14;fontStyle=1" parent="fdOULRMZBfbhq__KBzwl-94" vertex="1">
          <mxGeometry y="20" width="59" height="59" as="geometry" />
        </mxCell>
        <mxCell id="fdOULRMZBfbhq__KBzwl-97" value="" style="group" parent="1" vertex="1" connectable="0">
          <mxGeometry x="210" y="30" width="157.07" height="102.07" as="geometry" />
        </mxCell>
        <mxCell id="fdOULRMZBfbhq__KBzwl-98" value="" style="sketch=0;pointerEvents=1;shadow=0;dashed=0;html=1;strokeColor=none;fillColor=#505050;labelPosition=center;verticalLabelPosition=bottom;verticalAlign=top;outlineConnect=0;align=center;shape=mxgraph.office.devices.lcd_monitor;" parent="fdOULRMZBfbhq__KBzwl-97" vertex="1">
          <mxGeometry x="40" width="58" height="48" as="geometry" />
        </mxCell>
        <mxCell id="fdOULRMZBfbhq__KBzwl-99" value="developer 2" style="sketch=0;pointerEvents=1;shadow=0;dashed=0;html=1;strokeColor=none;fillColor=#505050;labelPosition=center;verticalLabelPosition=bottom;verticalAlign=top;outlineConnect=0;align=center;shape=mxgraph.office.services.user_services;fontSize=14;fontStyle=1" parent="fdOULRMZBfbhq__KBzwl-97" vertex="1">
          <mxGeometry y="20" width="59" height="59" as="geometry" />
        </mxCell>
        <mxCell id="fdOULRMZBfbhq__KBzwl-108" value="" style="html=1;shadow=0;dashed=0;align=center;verticalAlign=middle;shape=mxgraph.arrows2.arrow;dy=0.64;dx=16.8;notch=8;rotation=45;" parent="fdOULRMZBfbhq__KBzwl-97" vertex="1">
          <mxGeometry x="72.5" y="58.96" width="52.93" height="30" as="geometry" />
        </mxCell>
        <mxCell id="fdOULRMZBfbhq__KBzwl-104" value="" style="html=1;shadow=0;dashed=0;align=center;verticalAlign=middle;shape=mxgraph.arrows2.twoWayArrow;dy=0.6;dx=12;" parent="1" vertex="1">
          <mxGeometry x="414" y="126" width="46" height="20" as="geometry" />
        </mxCell>
        <mxCell id="fdOULRMZBfbhq__KBzwl-105" value="" style="html=1;shadow=0;dashed=0;align=center;verticalAlign=middle;shape=mxgraph.arrows2.twoWayArrow;dy=0.6;dx=12;" parent="1" vertex="1">
          <mxGeometry x="510" y="126" width="46" height="20" as="geometry" />
        </mxCell>
        <mxCell id="fdOULRMZBfbhq__KBzwl-109" value="" style="html=1;shadow=0;dashed=0;align=center;verticalAlign=middle;shape=mxgraph.arrows2.arrow;dy=0.68;dx=11.69;notch=8;rotation=-132;" parent="1" vertex="1">
          <mxGeometry x="498.97" y="221.55999999999995" width="39.65" height="28.28" as="geometry" />
        </mxCell>
        <mxCell id="fdOULRMZBfbhq__KBzwl-110" value="" style="html=1;shadow=0;dashed=0;align=center;verticalAlign=middle;shape=mxgraph.arrows2.arrow;dy=0.64;dx=16.8;notch=8;rotation=-40;" parent="1" vertex="1">
          <mxGeometry x="307.17" y="218.21000000000004" width="60" height="30" as="geometry" />
        </mxCell>
        <mxCell id="fdOULRMZBfbhq__KBzwl-135" value="rust&lt;br style=&quot;font-size: 9px;&quot;&gt;compiler" style="rounded=1;whiteSpace=wrap;html=1;fontSize=9;" parent="1" vertex="1">
          <mxGeometry x="130" y="485" width="50" height="26" as="geometry" />
        </mxCell>
        <mxCell id="fdOULRMZBfbhq__KBzwl-136" value="gpa&lt;br&gt;analyzer" style="rounded=1;whiteSpace=wrap;html=1;" parent="1" vertex="1">
          <mxGeometry x="130" y="515" width="50" height="30" as="geometry" />
        </mxCell>
        <mxCell id="WEjsT_6tD-7FXT86CGt--14" style="edgeStyle=orthogonalEdgeStyle;rounded=0;orthogonalLoop=1;jettySize=auto;html=1;exitX=0;exitY=0;exitDx=30;exitDy=25;exitPerimeter=0;entryX=0;entryY=0.5;entryDx=0;entryDy=0;" parent="1" source="fdOULRMZBfbhq__KBzwl-138" target="fdOULRMZBfbhq__KBzwl-347" edge="1">
          <mxGeometry relative="1" as="geometry" />
        </mxCell>
        <mxCell id="fdOULRMZBfbhq__KBzwl-138" value="exe" style="shape=note;whiteSpace=wrap;html=1;backgroundOutline=1;darkOpacity=0.05;size=10;" parent="1" vertex="1">
          <mxGeometry x="217" y="471" width="30" height="40" as="geometry" />
        </mxCell>
        <mxCell id="WEjsT_6tD-7FXT86CGt--13" style="edgeStyle=orthogonalEdgeStyle;rounded=0;orthogonalLoop=1;jettySize=auto;html=1;exitX=0;exitY=0;exitDx=30;exitDy=25;exitPerimeter=0;entryX=0;entryY=0.5;entryDx=0;entryDy=0;" parent="1" source="fdOULRMZBfbhq__KBzwl-139" target="fdOULRMZBfbhq__KBzwl-347" edge="1">
          <mxGeometry relative="1" as="geometry">
            <mxPoint x="270" y="500" as="targetPoint" />
          </mxGeometry>
        </mxCell>
        <mxCell id="fdOULRMZBfbhq__KBzwl-139" value="GPA" style="shape=note;whiteSpace=wrap;html=1;backgroundOutline=1;darkOpacity=0.05;size=10;" parent="1" vertex="1">
          <mxGeometry x="217" y="515" width="30" height="40" as="geometry" />
        </mxCell>
        <mxCell id="fdOULRMZBfbhq__KBzwl-345" style="edgeStyle=orthogonalEdgeStyle;rounded=0;orthogonalLoop=1;jettySize=auto;html=1;exitX=0;exitY=0;exitDx=42;exitDy=25;exitPerimeter=0;entryX=-0.011;entryY=0.423;entryDx=0;entryDy=0;entryPerimeter=0;" parent="1" source="fdOULRMZBfbhq__KBzwl-140" target="fdOULRMZBfbhq__KBzwl-152" edge="1">
          <mxGeometry relative="1" as="geometry" />
        </mxCell>
        <mxCell id="fdOULRMZBfbhq__KBzwl-140" value="access&lt;br&gt;list" style="shape=note;whiteSpace=wrap;html=1;backgroundOutline=1;darkOpacity=0.05;size=10;" parent="1" vertex="1">
          <mxGeometry x="180" y="613" width="42" height="40" as="geometry" />
        </mxCell>
        <mxCell id="fdOULRMZBfbhq__KBzwl-141" value="" style="group" parent="1" vertex="1" connectable="0">
          <mxGeometry x="40" y="465" width="76" height="73" as="geometry" />
        </mxCell>
        <mxCell id="fdOULRMZBfbhq__KBzwl-142" value="src" style="shape=document;whiteSpace=wrap;html=1;boundedLbl=1;size=0.125;" parent="fdOULRMZBfbhq__KBzwl-141" vertex="1">
          <mxGeometry x="22.8" y="24.333333333333332" width="30.4" height="48.666666666666664" as="geometry" />
        </mxCell>
        <mxCell id="fdOULRMZBfbhq__KBzwl-143" value="microservice1" style="text;html=1;align=center;verticalAlign=middle;resizable=0;points=[];autosize=1;strokeColor=none;fillColor=none;" parent="fdOULRMZBfbhq__KBzwl-141" vertex="1">
          <mxGeometry width="100" height="30" as="geometry" />
        </mxCell>
        <mxCell id="fdOULRMZBfbhq__KBzwl-146" value="" style="shape=flexArrow;endArrow=classic;html=1;rounded=0;endWidth=17;endSize=6.36;width=7;" parent="1" edge="1">
          <mxGeometry width="50" height="50" relative="1" as="geometry">
            <mxPoint x="69" y="634" as="sourcePoint" />
            <mxPoint x="170" y="634" as="targetPoint" />
          </mxGeometry>
        </mxCell>
        <mxCell id="fdOULRMZBfbhq__KBzwl-148" value="" style="endArrow=classic;html=1;rounded=0;entryX=1.028;entryY=1.053;entryDx=0;entryDy=0;entryPerimeter=0;" parent="1" edge="1">
          <mxGeometry width="50" height="50" relative="1" as="geometry">
            <mxPoint x="182" y="497" as="sourcePoint" />
            <mxPoint x="213" y="497" as="targetPoint" />
          </mxGeometry>
        </mxCell>
        <mxCell id="fdOULRMZBfbhq__KBzwl-149" value="" style="shape=table;startSize=0;container=1;collapsible=0;childLayout=tableLayout;fontSize=16;" parent="1" vertex="1">
          <mxGeometry x="277" y="564" width="101" height="110" as="geometry" />
        </mxCell>
        <mxCell id="fdOULRMZBfbhq__KBzwl-150" value="" style="shape=tableRow;horizontal=0;startSize=0;swimlaneHead=0;swimlaneBody=0;strokeColor=inherit;top=0;left=0;bottom=0;right=0;collapsible=0;dropTarget=0;fillColor=none;points=[[0,0.5],[1,0.5]];portConstraint=eastwest;fontSize=16;" parent="fdOULRMZBfbhq__KBzwl-149" vertex="1">
          <mxGeometry width="101" height="28" as="geometry" />
        </mxCell>
        <mxCell id="fdOULRMZBfbhq__KBzwl-151" value="VM GPA list" style="shape=partialRectangle;html=1;whiteSpace=wrap;connectable=0;strokeColor=inherit;overflow=hidden;fillColor=none;top=0;left=0;bottom=0;right=0;pointerEvents=1;fontSize=16;" parent="fdOULRMZBfbhq__KBzwl-150" vertex="1">
          <mxGeometry width="101" height="28" as="geometry">
            <mxRectangle width="101" height="28" as="alternateBounds" />
          </mxGeometry>
        </mxCell>
        <mxCell id="fdOULRMZBfbhq__KBzwl-152" style="shape=tableRow;horizontal=0;startSize=0;swimlaneHead=0;swimlaneBody=0;strokeColor=inherit;top=0;left=0;bottom=0;right=0;collapsible=0;dropTarget=0;fillColor=none;points=[[0,0.5],[1,0.5]];portConstraint=eastwest;fontSize=16;" parent="fdOULRMZBfbhq__KBzwl-149" vertex="1">
          <mxGeometry y="28" width="101" height="82" as="geometry" />
        </mxCell>
        <mxCell id="fdOULRMZBfbhq__KBzwl-153" style="shape=partialRectangle;html=1;whiteSpace=wrap;connectable=0;strokeColor=inherit;overflow=hidden;fillColor=none;top=0;left=0;bottom=0;right=0;pointerEvents=1;fontSize=16;" parent="fdOULRMZBfbhq__KBzwl-152" vertex="1">
          <mxGeometry width="101" height="82" as="geometry">
            <mxRectangle width="101" height="82" as="alternateBounds" />
          </mxGeometry>
        </mxCell>
        <mxCell id="fdOULRMZBfbhq__KBzwl-161" value="" style="rounded=0;whiteSpace=wrap;html=1;" parent="1" vertex="1">
          <mxGeometry x="400" y="434" width="60" height="230" as="geometry" />
        </mxCell>
        <mxCell id="fdOULRMZBfbhq__KBzwl-171" value="GPA&lt;br&gt;S2" style="shape=note;whiteSpace=wrap;html=1;backgroundOutline=1;darkOpacity=0.05;size=10;" parent="1" vertex="1">
          <mxGeometry x="284" y="606" width="30" height="40" as="geometry" />
        </mxCell>
        <mxCell id="fdOULRMZBfbhq__KBzwl-176" value="S2&lt;br&gt;code" style="shape=card;whiteSpace=wrap;html=1;size=12;" parent="1" vertex="1">
          <mxGeometry x="414" y="454" width="36" height="37" as="geometry" />
        </mxCell>
        <mxCell id="fdOULRMZBfbhq__KBzwl-185" value="developer 1" style="sketch=0;pointerEvents=1;shadow=0;dashed=0;html=1;strokeColor=none;fillColor=#505050;labelPosition=center;verticalLabelPosition=bottom;verticalAlign=top;outlineConnect=0;align=center;shape=mxgraph.office.services.user_services;fontSize=14;fontStyle=1" parent="1" vertex="1">
          <mxGeometry x="11" y="575" width="59" height="59" as="geometry" />
        </mxCell>
        <mxCell id="fdOULRMZBfbhq__KBzwl-186" value="" style="endArrow=classic;html=1;rounded=0;entryX=1.028;entryY=1.053;entryDx=0;entryDy=0;entryPerimeter=0;" parent="1" edge="1">
          <mxGeometry width="50" height="50" relative="1" as="geometry">
            <mxPoint x="98" y="499" as="sourcePoint" />
            <mxPoint x="125" y="499" as="targetPoint" />
          </mxGeometry>
        </mxCell>
        <mxCell id="fdOULRMZBfbhq__KBzwl-187" value="" style="endArrow=classic;html=1;rounded=0;entryX=1.028;entryY=1.053;entryDx=0;entryDy=0;entryPerimeter=0;" parent="1" edge="1">
          <mxGeometry width="50" height="50" relative="1" as="geometry">
            <mxPoint x="98" y="529" as="sourcePoint" />
            <mxPoint x="125" y="529" as="targetPoint" />
          </mxGeometry>
        </mxCell>
        <mxCell id="fdOULRMZBfbhq__KBzwl-191" value="" style="endArrow=classic;html=1;rounded=0;entryX=1.028;entryY=1.053;entryDx=0;entryDy=0;entryPerimeter=0;" parent="1" edge="1">
          <mxGeometry width="50" height="50" relative="1" as="geometry">
            <mxPoint x="182" y="533" as="sourcePoint" />
            <mxPoint x="213" y="533" as="targetPoint" />
          </mxGeometry>
        </mxCell>
        <mxCell id="fdOULRMZBfbhq__KBzwl-182" value="&lt;font style=&quot;font-size: 16px;&quot;&gt;VM in machine A&lt;/font&gt;" style="text;html=1;align=center;verticalAlign=middle;resizable=0;points=[];autosize=1;strokeColor=none;fillColor=none;" parent="1" vertex="1">
          <mxGeometry x="343.79999999999995" y="377" width="140" height="30" as="geometry" />
        </mxCell>
        <mxCell id="fdOULRMZBfbhq__KBzwl-193" value="VM&lt;br&gt;code" style="shape=card;whiteSpace=wrap;html=1;size=12;" parent="1" vertex="1">
          <mxGeometry x="406" y="613" width="48" height="47" as="geometry" />
        </mxCell>
        <mxCell id="WEjsT_6tD-7FXT86CGt--22" style="edgeStyle=orthogonalEdgeStyle;rounded=0;orthogonalLoop=1;jettySize=auto;html=1;exitX=1;exitY=0.5;exitDx=0;exitDy=0;entryX=0;entryY=0;entryDx=0;entryDy=24.5;entryPerimeter=0;" parent="1" source="fdOULRMZBfbhq__KBzwl-347" target="WEjsT_6tD-7FXT86CGt--21" edge="1">
          <mxGeometry relative="1" as="geometry" />
        </mxCell>
        <mxCell id="WEjsT_6tD-7FXT86CGt--23" style="edgeStyle=orthogonalEdgeStyle;rounded=0;orthogonalLoop=1;jettySize=auto;html=1;exitX=0.5;exitY=1;exitDx=0;exitDy=0;entryX=0;entryY=0;entryDx=10;entryDy=0;entryPerimeter=0;" parent="1" source="fdOULRMZBfbhq__KBzwl-347" target="WEjsT_6tD-7FXT86CGt--12" edge="1">
          <mxGeometry relative="1" as="geometry">
            <Array as="points">
              <mxPoint x="318" y="547" />
              <mxPoint x="318" y="584" />
            </Array>
          </mxGeometry>
        </mxCell>
        <mxCell id="fdOULRMZBfbhq__KBzwl-347" value="" style="rounded=1;whiteSpace=wrap;html=1;" parent="1" vertex="1">
          <mxGeometry x="290" y="424" width="96" height="123" as="geometry" />
        </mxCell>
        <mxCell id="fdOULRMZBfbhq__KBzwl-349" value="" style="group" parent="1" vertex="1" connectable="0">
          <mxGeometry x="300.83000000000004" y="432" width="71" height="107" as="geometry" />
        </mxCell>
        <mxCell id="fdOULRMZBfbhq__KBzwl-156" value="GPA&lt;br&gt;checker" style="rounded=1;whiteSpace=wrap;html=1;" parent="fdOULRMZBfbhq__KBzwl-349" vertex="1">
          <mxGeometry x="1" y="38.5" width="70" height="30" as="geometry" />
        </mxCell>
        <mxCell id="fdOULRMZBfbhq__KBzwl-157" value="vm&lt;br&gt;loader" style="rounded=1;whiteSpace=wrap;html=1;" parent="fdOULRMZBfbhq__KBzwl-349" vertex="1">
          <mxGeometry y="77" width="70" height="30" as="geometry" />
        </mxCell>
        <mxCell id="fdOULRMZBfbhq__KBzwl-158" value="runtime&lt;br&gt;guard" style="rounded=1;whiteSpace=wrap;html=1;" parent="fdOULRMZBfbhq__KBzwl-349" vertex="1">
          <mxGeometry width="70" height="30" as="geometry" />
        </mxCell>
        <mxCell id="WEjsT_6tD-7FXT86CGt--12" value="GPA&lt;br&gt;S1" style="shape=note;whiteSpace=wrap;html=1;backgroundOutline=1;darkOpacity=0.05;size=10;" parent="1" vertex="1">
          <mxGeometry x="307.5" y="620" width="30" height="40" as="geometry" />
        </mxCell>
        <mxCell id="WEjsT_6tD-7FXT86CGt--17" value="projected&lt;br style=&quot;font-size: 14px;&quot;&gt;obj" style="rounded=0;whiteSpace=wrap;html=1;fontSize=14;" parent="1" vertex="1">
          <mxGeometry x="460" y="614" width="62" height="50" as="geometry" />
        </mxCell>
        <mxCell id="WEjsT_6tD-7FXT86CGt--18" value="Heap" style="rounded=0;whiteSpace=wrap;html=1;fontSize=16;" parent="1" vertex="1">
          <mxGeometry x="460" y="434" width="62" height="31" as="geometry" />
        </mxCell>
        <mxCell id="WEjsT_6tD-7FXT86CGt--19" value="obj S2" style="rounded=0;whiteSpace=wrap;html=1;fontSize=14;" parent="1" vertex="1">
          <mxGeometry x="460" y="464" width="62" height="31" as="geometry" />
        </mxCell>
        <mxCell id="WEjsT_6tD-7FXT86CGt--20" value="obj S1" style="rounded=0;whiteSpace=wrap;html=1;fontSize=14;" parent="1" vertex="1">
          <mxGeometry x="460" y="516" width="62" height="31" as="geometry" />
        </mxCell>
        <mxCell id="WEjsT_6tD-7FXT86CGt--21" value="S1&lt;br&gt;code" style="shape=card;whiteSpace=wrap;html=1;size=12;" parent="1" vertex="1">
          <mxGeometry x="414" y="507" width="36" height="37" as="geometry" />
        </mxCell>
        <mxCell id="WEjsT_6tD-7FXT86CGt--52" value="" style="sketch=0;pointerEvents=1;shadow=0;dashed=0;html=1;strokeColor=none;fillColor=#505050;labelPosition=center;verticalLabelPosition=bottom;verticalAlign=top;outlineConnect=0;align=center;shape=mxgraph.office.servers.server_generic;" parent="1" vertex="1">
          <mxGeometry x="547.5" y="355" width="81" height="121" as="geometry" />
        </mxCell>
        <mxCell id="WEjsT_6tD-7FXT86CGt--53" value="" style="rounded=0;whiteSpace=wrap;html=1;strokeWidth=4;" parent="1" vertex="1">
          <mxGeometry x="610" y="417" width="207.5" height="259" as="geometry" />
        </mxCell>
        <mxCell id="WEjsT_6tD-7FXT86CGt--60" value="" style="rounded=0;whiteSpace=wrap;html=1;" parent="1" vertex="1">
          <mxGeometry x="673.5" y="434" width="46.5" height="230" as="geometry" />
        </mxCell>
        <mxCell id="WEjsT_6tD-7FXT86CGt--63" value="&lt;font style=&quot;font-size: 16px;&quot;&gt;VM in machine B&lt;/font&gt;" style="text;html=1;align=center;verticalAlign=middle;resizable=0;points=[];autosize=1;strokeColor=none;fillColor=none;" parent="1" vertex="1">
          <mxGeometry x="637.3" y="377" width="140" height="30" as="geometry" />
        </mxCell>
        <mxCell id="WEjsT_6tD-7FXT86CGt--64" value="VM&lt;br&gt;code" style="shape=card;whiteSpace=wrap;html=1;size=12;" parent="1" vertex="1">
          <mxGeometry x="676.5" y="613" width="40.5" height="47" as="geometry" />
        </mxCell>
        <mxCell id="WEjsT_6tD-7FXT86CGt--73" value="projected&lt;br style=&quot;font-size: 14px;&quot;&gt;obj" style="rounded=0;whiteSpace=wrap;html=1;fontSize=14;" parent="1" vertex="1">
          <mxGeometry x="611.5" y="614" width="62" height="50" as="geometry" />
        </mxCell>
        <mxCell id="WEjsT_6tD-7FXT86CGt--74" value="Heap" style="rounded=0;whiteSpace=wrap;html=1;fontSize=16;" parent="1" vertex="1">
          <mxGeometry x="611.5" y="434" width="62" height="31" as="geometry" />
        </mxCell>
        <mxCell id="WEjsT_6tD-7FXT86CGt--93" style="edgeStyle=orthogonalEdgeStyle;rounded=0;orthogonalLoop=1;jettySize=auto;html=1;exitX=0;exitY=0.5;exitDx=0;exitDy=0;" parent="1" source="WEjsT_6tD-7FXT86CGt--76" target="WEjsT_6tD-7FXT86CGt--92" edge="1">
          <mxGeometry relative="1" as="geometry" />
        </mxCell>
        <mxCell id="WEjsT_6tD-7FXT86CGt--76" value="obj S3" style="rounded=0;whiteSpace=wrap;html=1;fontSize=14;" parent="1" vertex="1">
          <mxGeometry x="611.5" y="516" width="62" height="31" as="geometry" />
        </mxCell>
        <mxCell id="WEjsT_6tD-7FXT86CGt--77" value="S3&lt;br&gt;code" style="shape=card;whiteSpace=wrap;html=1;size=12;" parent="1" vertex="1">
          <mxGeometry x="678.5" y="510" width="36" height="37" as="geometry" />
        </mxCell>
        <mxCell id="WEjsT_6tD-7FXT86CGt--80" value="" style="shape=table;startSize=0;container=1;collapsible=0;childLayout=tableLayout;fontSize=16;" parent="1" vertex="1">
          <mxGeometry x="740" y="563.5" width="75" height="110" as="geometry" />
        </mxCell>
        <mxCell id="WEjsT_6tD-7FXT86CGt--81" value="" style="shape=tableRow;horizontal=0;startSize=0;swimlaneHead=0;swimlaneBody=0;strokeColor=inherit;top=0;left=0;bottom=0;right=0;collapsible=0;dropTarget=0;fillColor=none;points=[[0,0.5],[1,0.5]];portConstraint=eastwest;fontSize=16;" parent="WEjsT_6tD-7FXT86CGt--80" vertex="1">
          <mxGeometry width="75" height="28" as="geometry" />
        </mxCell>
        <mxCell id="WEjsT_6tD-7FXT86CGt--82" value="VM GPA list" style="shape=partialRectangle;html=1;whiteSpace=wrap;connectable=0;strokeColor=inherit;overflow=hidden;fillColor=none;top=0;left=0;bottom=0;right=0;pointerEvents=1;fontSize=16;" parent="WEjsT_6tD-7FXT86CGt--81" vertex="1">
          <mxGeometry width="75" height="28" as="geometry">
            <mxRectangle width="75" height="28" as="alternateBounds" />
          </mxGeometry>
        </mxCell>
        <mxCell id="WEjsT_6tD-7FXT86CGt--83" style="shape=tableRow;horizontal=0;startSize=0;swimlaneHead=0;swimlaneBody=0;strokeColor=inherit;top=0;left=0;bottom=0;right=0;collapsible=0;dropTarget=0;fillColor=none;points=[[0,0.5],[1,0.5]];portConstraint=eastwest;fontSize=16;" parent="WEjsT_6tD-7FXT86CGt--80" vertex="1">
          <mxGeometry y="28" width="75" height="82" as="geometry" />
        </mxCell>
        <mxCell id="WEjsT_6tD-7FXT86CGt--84" style="shape=partialRectangle;html=1;whiteSpace=wrap;connectable=0;strokeColor=inherit;overflow=hidden;fillColor=none;top=0;left=0;bottom=0;right=0;pointerEvents=1;fontSize=16;" parent="WEjsT_6tD-7FXT86CGt--83" vertex="1">
          <mxGeometry width="75" height="82" as="geometry">
            <mxRectangle width="75" height="82" as="alternateBounds" />
          </mxGeometry>
        </mxCell>
        <mxCell id="WEjsT_6tD-7FXT86CGt--85" value="" style="rounded=1;whiteSpace=wrap;html=1;" parent="1" vertex="1">
          <mxGeometry x="730" y="428.5" width="82" height="123" as="geometry" />
        </mxCell>
        <mxCell id="WEjsT_6tD-7FXT86CGt--86" value="" style="group" parent="1" vertex="1" connectable="0">
          <mxGeometry x="736.83" y="436.5" width="71" height="107" as="geometry" />
        </mxCell>
        <mxCell id="WEjsT_6tD-7FXT86CGt--87" value="GPA&lt;br&gt;checker" style="rounded=1;whiteSpace=wrap;html=1;" parent="WEjsT_6tD-7FXT86CGt--86" vertex="1">
          <mxGeometry x="1" y="38.5" width="70" height="30" as="geometry" />
        </mxCell>
        <mxCell id="WEjsT_6tD-7FXT86CGt--88" value="vm&lt;br&gt;loader" style="rounded=1;whiteSpace=wrap;html=1;" parent="WEjsT_6tD-7FXT86CGt--86" vertex="1">
          <mxGeometry y="77" width="70" height="30" as="geometry" />
        </mxCell>
        <mxCell id="WEjsT_6tD-7FXT86CGt--89" value="runtime&lt;br&gt;guard" style="rounded=1;whiteSpace=wrap;html=1;" parent="WEjsT_6tD-7FXT86CGt--86" vertex="1">
          <mxGeometry width="70" height="30" as="geometry" />
        </mxCell>
        <mxCell id="WEjsT_6tD-7FXT86CGt--98" style="edgeStyle=orthogonalEdgeStyle;rounded=0;orthogonalLoop=1;jettySize=auto;html=1;exitX=0.5;exitY=1;exitDx=0;exitDy=0;exitPerimeter=0;" parent="1" source="WEjsT_6tD-7FXT86CGt--90" target="WEjsT_6tD-7FXT86CGt--97" edge="1">
          <mxGeometry relative="1" as="geometry">
            <Array as="points">
              <mxPoint x="780" y="653" />
              <mxPoint x="780" y="700" />
            </Array>
          </mxGeometry>
        </mxCell>
        <mxCell id="WEjsT_6tD-7FXT86CGt--90" value="GPA&lt;br&gt;S3" style="shape=note;whiteSpace=wrap;html=1;backgroundOutline=1;darkOpacity=0.05;size=10;" parent="1" vertex="1">
          <mxGeometry x="763.5" y="612.5" width="30" height="40" as="geometry" />
        </mxCell>
        <mxCell id="WEjsT_6tD-7FXT86CGt--92" value="" style="sketch=0;pointerEvents=1;shadow=0;dashed=0;html=1;strokeColor=none;fillColor=#505050;labelPosition=center;verticalLabelPosition=bottom;verticalAlign=top;outlineConnect=0;align=center;shape=mxgraph.office.servers.hybrid_server;" parent="1" vertex="1">
          <mxGeometry x="528" y="505" width="59" height="52" as="geometry" />
        </mxCell>
        <mxCell id="WEjsT_6tD-7FXT86CGt--96" style="edgeStyle=orthogonalEdgeStyle;rounded=0;orthogonalLoop=1;jettySize=auto;html=1;exitX=1;exitY=0.5;exitDx=0;exitDy=0;startArrow=classic;startFill=1;endArrow=none;endFill=0;" parent="1" source="WEjsT_6tD-7FXT86CGt--94" target="WEjsT_6tD-7FXT86CGt--92" edge="1">
          <mxGeometry relative="1" as="geometry" />
        </mxCell>
        <mxCell id="WEjsT_6tD-7FXT86CGt--94" value="obj S3" style="rounded=0;whiteSpace=wrap;html=1;fontSize=14;" parent="1" vertex="1">
          <mxGeometry x="460" y="564" width="62" height="31" as="geometry" />
        </mxCell>
        <mxCell id="WEjsT_6tD-7FXT86CGt--95" value="Remote&lt;br&gt;object" style="shape=card;whiteSpace=wrap;html=1;size=12;" parent="1" vertex="1">
          <mxGeometry x="404" y="561" width="50" height="37" as="geometry" />
        </mxCell>
        <mxCell id="WEjsT_6tD-7FXT86CGt--97" value="" style="sketch=0;pointerEvents=1;shadow=0;dashed=0;html=1;strokeColor=none;fillColor=#505050;labelPosition=center;verticalLabelPosition=bottom;verticalAlign=top;outlineConnect=0;align=center;shape=mxgraph.office.servers.hybrid_server;" parent="1" vertex="1">
          <mxGeometry x="538.62" y="673.5" width="59" height="52" as="geometry" />
        </mxCell>
        <mxCell id="WEjsT_6tD-7FXT86CGt--100" style="edgeStyle=orthogonalEdgeStyle;rounded=0;orthogonalLoop=1;jettySize=auto;html=1;exitX=0.5;exitY=1;exitDx=0;exitDy=0;exitPerimeter=0;startArrow=classic;startFill=1;endArrow=none;endFill=0;" parent="1" source="WEjsT_6tD-7FXT86CGt--99" target="WEjsT_6tD-7FXT86CGt--97" edge="1">
          <mxGeometry relative="1" as="geometry">
            <Array as="points">
              <mxPoint x="359" y="700" />
            </Array>
          </mxGeometry>
        </mxCell>
        <mxCell id="WEjsT_6tD-7FXT86CGt--99" value="GPA&lt;br&gt;S3" style="shape=note;whiteSpace=wrap;html=1;backgroundOutline=1;darkOpacity=0.05;size=10;" parent="1" vertex="1">
          <mxGeometry x="343.8" y="606" width="30" height="40" as="geometry" />
        </mxCell>
        <mxCell id="WEjsT_6tD-7FXT86CGt--101" value="" style="endArrow=none;dashed=1;html=1;dashPattern=1 3;strokeWidth=2;rounded=0;" parent="1" edge="1">
          <mxGeometry width="50" height="50" relative="1" as="geometry">
            <mxPoint x="150" y="320" as="sourcePoint" />
            <mxPoint x="510" y="110" as="targetPoint" />
            <Array as="points">
              <mxPoint x="370" y="110" />
            </Array>
          </mxGeometry>
        </mxCell>
        <mxCell id="WEjsT_6tD-7FXT86CGt--102" value="" style="endArrow=none;dashed=1;html=1;dashPattern=1 3;strokeWidth=2;rounded=0;" parent="1" edge="1">
          <mxGeometry width="50" height="50" relative="1" as="geometry">
            <mxPoint x="150" y="320" as="sourcePoint" />
            <mxPoint x="510" y="110" as="targetPoint" />
            <Array as="points">
              <mxPoint x="460" y="320" />
            </Array>
          </mxGeometry>
        </mxCell>
        <mxCell id="WEjsT_6tD-7FXT86CGt--105" value="" style="shape=mxgraph.arrows2.wedgeArrow;html=1;bendable=0;startWidth=12;fillColor=strokeColor;defaultFillColor=invert;defaultGradientColor=invert;rounded=0;shadow=1;opacity=20;" parent="1" edge="1">
          <mxGeometry width="100" height="100" relative="1" as="geometry">
            <mxPoint x="430" y="360" as="sourcePoint" />
            <mxPoint x="410.3" y="240" as="targetPoint" />
          </mxGeometry>
        </mxCell>
      </root>
    </mxGraphModel>
  </diagram>
  <diagram name="第 5 页 的副本" id="AztYxIlYR1ylP0wAz5e2">
    <mxGraphModel dx="1750" dy="820" grid="1" gridSize="10" guides="1" tooltips="1" connect="1" arrows="1" fold="1" page="1" pageScale="1" pageWidth="827" pageHeight="1169" math="0" shadow="0">
      <root>
        <mxCell id="ax-5jWfEmzY9jY0mhrTK-0" />
        <mxCell id="ax-5jWfEmzY9jY0mhrTK-1" parent="ax-5jWfEmzY9jY0mhrTK-0" />
        <mxCell id="ax-5jWfEmzY9jY0mhrTK-2" value="" style="shape=mxgraph.arrows2.wedgeArrowDashed2;html=1;bendable=0;startWidth=12;stepSize=15;rounded=0;strokeColor=#D0D0D0;" edge="1" parent="ax-5jWfEmzY9jY0mhrTK-1">
          <mxGeometry width="100" height="100" relative="1" as="geometry">
            <mxPoint x="430" y="350" as="sourcePoint" />
            <mxPoint x="410" y="240" as="targetPoint" />
          </mxGeometry>
        </mxCell>
        <mxCell id="ax-5jWfEmzY9jY0mhrTK-3" value="" style="sketch=0;pointerEvents=1;shadow=0;dashed=0;html=1;strokeColor=none;fillColor=#505050;labelPosition=center;verticalLabelPosition=bottom;verticalAlign=top;outlineConnect=0;align=center;shape=mxgraph.office.servers.server_generic;" vertex="1" parent="ax-5jWfEmzY9jY0mhrTK-1">
          <mxGeometry x="251" y="355" width="81" height="121" as="geometry" />
        </mxCell>
        <mxCell id="ax-5jWfEmzY9jY0mhrTK-4" value="" style="rounded=0;whiteSpace=wrap;html=1;strokeWidth=4;" vertex="1" parent="ax-5jWfEmzY9jY0mhrTK-1">
          <mxGeometry x="271" y="417" width="234" height="283" as="geometry" />
        </mxCell>
        <mxCell id="ax-5jWfEmzY9jY0mhrTK-5" value="" style="sketch=0;pointerEvents=1;shadow=0;dashed=0;html=1;strokeColor=none;fillColor=#505050;labelPosition=center;verticalLabelPosition=bottom;verticalAlign=top;outlineConnect=0;align=center;shape=mxgraph.office.devices.lcd_monitor;" vertex="1" parent="ax-5jWfEmzY9jY0mhrTK-1">
          <mxGeometry x="38" y="459" width="162" height="130" as="geometry" />
        </mxCell>
        <mxCell id="ax-5jWfEmzY9jY0mhrTK-6" value="Machine A" style="sketch=0;pointerEvents=1;shadow=0;dashed=0;html=1;strokeColor=none;fillColor=#505050;labelPosition=center;verticalLabelPosition=bottom;verticalAlign=top;outlineConnect=0;align=center;shape=mxgraph.office.servers.server_generic;fontStyle=1" vertex="1" parent="ax-5jWfEmzY9jY0mhrTK-1">
          <mxGeometry x="369" y="120" width="40" height="70" as="geometry" />
        </mxCell>
        <mxCell id="ax-5jWfEmzY9jY0mhrTK-7" value="Machine B" style="sketch=0;pointerEvents=1;shadow=0;dashed=0;html=1;strokeColor=none;fillColor=#505050;labelPosition=center;verticalLabelPosition=bottom;verticalAlign=top;outlineConnect=0;align=center;shape=mxgraph.office.servers.database_server;fontStyle=1" vertex="1" parent="ax-5jWfEmzY9jY0mhrTK-1">
          <mxGeometry x="466" y="120" width="63" height="76" as="geometry" />
        </mxCell>
        <mxCell id="ax-5jWfEmzY9jY0mhrTK-8" value="Machine C" style="sketch=0;pointerEvents=1;shadow=0;dashed=0;html=1;strokeColor=none;fillColor=#505050;labelPosition=center;verticalLabelPosition=bottom;verticalAlign=top;outlineConnect=0;align=center;shape=mxgraph.office.servers.server_generic;fontStyle=1" vertex="1" parent="ax-5jWfEmzY9jY0mhrTK-1">
          <mxGeometry x="563" y="120" width="40" height="70" as="geometry" />
        </mxCell>
        <mxCell id="ax-5jWfEmzY9jY0mhrTK-9" value="Cloud" style="sketch=0;pointerEvents=1;shadow=0;dashed=0;html=1;strokeColor=none;fillColor=#505050;labelPosition=center;verticalLabelPosition=middle;outlineConnect=0;verticalAlign=middle;align=center;shape=mxgraph.office.clouds.cloud;fillStyle=solid;fontStyle=1;fontSize=24;" vertex="1" parent="ax-5jWfEmzY9jY0mhrTK-1">
          <mxGeometry x="310.30000000000007" y="20" width="327" height="150" as="geometry" />
        </mxCell>
        <mxCell id="ax-5jWfEmzY9jY0mhrTK-10" value="" style="group" vertex="1" connectable="0" parent="ax-5jWfEmzY9jY0mhrTK-1">
          <mxGeometry x="208" y="215" width="98" height="79" as="geometry" />
        </mxCell>
        <mxCell id="ax-5jWfEmzY9jY0mhrTK-11" value="" style="sketch=0;pointerEvents=1;shadow=0;dashed=0;html=1;strokeColor=none;fillColor=#505050;labelPosition=center;verticalLabelPosition=bottom;verticalAlign=top;outlineConnect=0;align=center;shape=mxgraph.office.devices.lcd_monitor;" vertex="1" parent="ax-5jWfEmzY9jY0mhrTK-10">
          <mxGeometry x="40" width="58" height="48" as="geometry" />
        </mxCell>
        <mxCell id="ax-5jWfEmzY9jY0mhrTK-12" value="developer 1" style="sketch=0;pointerEvents=1;shadow=0;dashed=0;html=1;strokeColor=none;fillColor=#505050;labelPosition=center;verticalLabelPosition=bottom;verticalAlign=top;outlineConnect=0;align=center;shape=mxgraph.office.services.user_services;fontSize=14;fontStyle=1" vertex="1" parent="ax-5jWfEmzY9jY0mhrTK-10">
          <mxGeometry y="20" width="59" height="59" as="geometry" />
        </mxCell>
        <mxCell id="ax-5jWfEmzY9jY0mhrTK-13" value="" style="group" vertex="1" connectable="0" parent="ax-5jWfEmzY9jY0mhrTK-1">
          <mxGeometry x="533" y="210" width="98" height="109" as="geometry" />
        </mxCell>
        <mxCell id="ax-5jWfEmzY9jY0mhrTK-14" value="" style="sketch=0;pointerEvents=1;shadow=0;dashed=0;html=1;strokeColor=none;fillColor=#505050;labelPosition=center;verticalLabelPosition=bottom;verticalAlign=top;outlineConnect=0;align=center;shape=mxgraph.office.devices.lcd_monitor;" vertex="1" parent="ax-5jWfEmzY9jY0mhrTK-13">
          <mxGeometry x="40" width="58" height="48" as="geometry" />
        </mxCell>
        <mxCell id="ax-5jWfEmzY9jY0mhrTK-15" value="developer 3" style="sketch=0;pointerEvents=1;shadow=0;dashed=0;html=1;strokeColor=none;fillColor=#505050;labelPosition=center;verticalLabelPosition=bottom;verticalAlign=top;outlineConnect=0;align=center;shape=mxgraph.office.services.user_services;fontSize=14;fontStyle=1" vertex="1" parent="ax-5jWfEmzY9jY0mhrTK-13">
          <mxGeometry y="20" width="59" height="59" as="geometry" />
        </mxCell>
        <mxCell id="ax-5jWfEmzY9jY0mhrTK-16" value="" style="group" vertex="1" connectable="0" parent="ax-5jWfEmzY9jY0mhrTK-1">
          <mxGeometry x="210" y="30" width="157.07" height="102.07" as="geometry" />
        </mxCell>
        <mxCell id="ax-5jWfEmzY9jY0mhrTK-17" value="" style="sketch=0;pointerEvents=1;shadow=0;dashed=0;html=1;strokeColor=none;fillColor=#505050;labelPosition=center;verticalLabelPosition=bottom;verticalAlign=top;outlineConnect=0;align=center;shape=mxgraph.office.devices.lcd_monitor;" vertex="1" parent="ax-5jWfEmzY9jY0mhrTK-16">
          <mxGeometry x="40" width="58" height="48" as="geometry" />
        </mxCell>
        <mxCell id="ax-5jWfEmzY9jY0mhrTK-18" value="developer 2" style="sketch=0;pointerEvents=1;shadow=0;dashed=0;html=1;strokeColor=none;fillColor=#505050;labelPosition=center;verticalLabelPosition=bottom;verticalAlign=top;outlineConnect=0;align=center;shape=mxgraph.office.services.user_services;fontSize=14;fontStyle=1" vertex="1" parent="ax-5jWfEmzY9jY0mhrTK-16">
          <mxGeometry y="20" width="59" height="59" as="geometry" />
        </mxCell>
        <mxCell id="ax-5jWfEmzY9jY0mhrTK-19" value="" style="html=1;shadow=0;dashed=0;align=center;verticalAlign=middle;shape=mxgraph.arrows2.arrow;dy=0.64;dx=16.8;notch=8;rotation=45;" vertex="1" parent="ax-5jWfEmzY9jY0mhrTK-16">
          <mxGeometry x="72.5" y="58.96" width="52.93" height="30" as="geometry" />
        </mxCell>
        <mxCell id="ax-5jWfEmzY9jY0mhrTK-20" value="" style="html=1;shadow=0;dashed=0;align=center;verticalAlign=middle;shape=mxgraph.arrows2.twoWayArrow;dy=0.6;dx=12;" vertex="1" parent="ax-5jWfEmzY9jY0mhrTK-1">
          <mxGeometry x="414" y="126" width="46" height="20" as="geometry" />
        </mxCell>
        <mxCell id="ax-5jWfEmzY9jY0mhrTK-21" value="" style="html=1;shadow=0;dashed=0;align=center;verticalAlign=middle;shape=mxgraph.arrows2.twoWayArrow;dy=0.6;dx=12;" vertex="1" parent="ax-5jWfEmzY9jY0mhrTK-1">
          <mxGeometry x="510" y="126" width="46" height="20" as="geometry" />
        </mxCell>
        <mxCell id="ax-5jWfEmzY9jY0mhrTK-22" value="" style="html=1;shadow=0;dashed=0;align=center;verticalAlign=middle;shape=mxgraph.arrows2.arrow;dy=0.68;dx=11.69;notch=8;rotation=-132;" vertex="1" parent="ax-5jWfEmzY9jY0mhrTK-1">
          <mxGeometry x="498.97" y="221.55999999999995" width="39.65" height="28.28" as="geometry" />
        </mxCell>
        <mxCell id="ax-5jWfEmzY9jY0mhrTK-23" value="" style="html=1;shadow=0;dashed=0;align=center;verticalAlign=middle;shape=mxgraph.arrows2.arrow;dy=0.64;dx=16.8;notch=8;rotation=-40;" vertex="1" parent="ax-5jWfEmzY9jY0mhrTK-1">
          <mxGeometry x="307.17" y="218.21000000000004" width="60" height="30" as="geometry" />
        </mxCell>
        <mxCell id="ax-5jWfEmzY9jY0mhrTK-24" value="rust&lt;br style=&quot;font-size: 9px;&quot;&gt;compiler" style="rounded=1;whiteSpace=wrap;html=1;fontSize=9;" vertex="1" parent="ax-5jWfEmzY9jY0mhrTK-1">
          <mxGeometry x="130" y="485" width="50" height="26" as="geometry" />
        </mxCell>
        <mxCell id="ax-5jWfEmzY9jY0mhrTK-25" value="gpa&lt;br&gt;analyzer" style="rounded=1;whiteSpace=wrap;html=1;" vertex="1" parent="ax-5jWfEmzY9jY0mhrTK-1">
          <mxGeometry x="130" y="515" width="50" height="30" as="geometry" />
        </mxCell>
        <mxCell id="a60SWCR8j5Pawfycr1LJ-84" style="edgeStyle=orthogonalEdgeStyle;rounded=0;orthogonalLoop=1;jettySize=auto;html=1;exitX=0;exitY=0;exitDx=10;exitDy=0;exitPerimeter=0;entryX=0;entryY=0;entryDx=24;entryDy=0;entryPerimeter=0;dashed=1;fillColor=#f5f5f5;strokeColor=#666666;" edge="1" parent="ax-5jWfEmzY9jY0mhrTK-1" source="ax-5jWfEmzY9jY0mhrTK-27" target="ax-5jWfEmzY9jY0mhrTK-63">
          <mxGeometry relative="1" as="geometry" />
        </mxCell>
        <mxCell id="ax-5jWfEmzY9jY0mhrTK-27" value="exe" style="shape=note;whiteSpace=wrap;html=1;backgroundOutline=1;darkOpacity=0.05;size=10;" vertex="1" parent="ax-5jWfEmzY9jY0mhrTK-1">
          <mxGeometry x="217" y="471" width="30" height="40" as="geometry" />
        </mxCell>
        <mxCell id="a60SWCR8j5Pawfycr1LJ-82" style="edgeStyle=orthogonalEdgeStyle;rounded=0;orthogonalLoop=1;jettySize=auto;html=1;exitX=0;exitY=0;exitDx=30;exitDy=25;exitPerimeter=0;entryX=0.5;entryY=1;entryDx=0;entryDy=0;entryPerimeter=0;dashed=1;fillColor=#f5f5f5;strokeColor=#666666;" edge="1" parent="ax-5jWfEmzY9jY0mhrTK-1" source="ax-5jWfEmzY9jY0mhrTK-29" target="ax-5jWfEmzY9jY0mhrTK-58">
          <mxGeometry relative="1" as="geometry">
            <Array as="points">
              <mxPoint x="260" y="540" />
              <mxPoint x="260" y="635" />
              <mxPoint x="436" y="635" />
            </Array>
          </mxGeometry>
        </mxCell>
        <mxCell id="ax-5jWfEmzY9jY0mhrTK-29" value="GPA" style="shape=note;whiteSpace=wrap;html=1;backgroundOutline=1;darkOpacity=0.05;size=10;" vertex="1" parent="ax-5jWfEmzY9jY0mhrTK-1">
          <mxGeometry x="217" y="515" width="30" height="40" as="geometry" />
        </mxCell>
        <mxCell id="a60SWCR8j5Pawfycr1LJ-81" style="edgeStyle=orthogonalEdgeStyle;rounded=0;orthogonalLoop=1;jettySize=auto;html=1;exitX=0;exitY=0;exitDx=16;exitDy=0;exitPerimeter=0;entryX=0.047;entryY=0.614;entryDx=0;entryDy=0;entryPerimeter=0;dashed=1;fillColor=#f5f5f5;strokeColor=#666666;" edge="1" parent="ax-5jWfEmzY9jY0mhrTK-1" source="ax-5jWfEmzY9jY0mhrTK-31" target="ax-5jWfEmzY9jY0mhrTK-40">
          <mxGeometry relative="1" as="geometry">
            <Array as="points">
              <mxPoint x="196" y="598" />
            </Array>
          </mxGeometry>
        </mxCell>
        <mxCell id="ax-5jWfEmzY9jY0mhrTK-31" value="access&lt;br&gt;list" style="shape=note;whiteSpace=wrap;html=1;backgroundOutline=1;darkOpacity=0.05;size=10;" vertex="1" parent="ax-5jWfEmzY9jY0mhrTK-1">
          <mxGeometry x="180" y="613" width="42" height="40" as="geometry" />
        </mxCell>
        <mxCell id="ax-5jWfEmzY9jY0mhrTK-32" value="" style="group" vertex="1" connectable="0" parent="ax-5jWfEmzY9jY0mhrTK-1">
          <mxGeometry x="40" y="465" width="76" height="73" as="geometry" />
        </mxCell>
        <mxCell id="ax-5jWfEmzY9jY0mhrTK-33" value="src" style="shape=document;whiteSpace=wrap;html=1;boundedLbl=1;size=0.125;" vertex="1" parent="ax-5jWfEmzY9jY0mhrTK-32">
          <mxGeometry x="22.8" y="24.333333333333332" width="30.4" height="48.666666666666664" as="geometry" />
        </mxCell>
        <mxCell id="ax-5jWfEmzY9jY0mhrTK-34" value="microservice1" style="text;html=1;align=center;verticalAlign=middle;resizable=0;points=[];autosize=1;strokeColor=none;fillColor=none;" vertex="1" parent="ax-5jWfEmzY9jY0mhrTK-32">
          <mxGeometry width="100" height="30" as="geometry" />
        </mxCell>
        <mxCell id="ax-5jWfEmzY9jY0mhrTK-35" value="" style="shape=flexArrow;endArrow=classic;html=1;rounded=0;endWidth=17;endSize=6.36;width=7;" edge="1" parent="ax-5jWfEmzY9jY0mhrTK-1">
          <mxGeometry width="50" height="50" relative="1" as="geometry">
            <mxPoint x="69" y="634" as="sourcePoint" />
            <mxPoint x="170" y="634" as="targetPoint" />
          </mxGeometry>
        </mxCell>
        <mxCell id="ax-5jWfEmzY9jY0mhrTK-36" value="" style="endArrow=classic;html=1;rounded=0;entryX=1.028;entryY=1.053;entryDx=0;entryDy=0;entryPerimeter=0;" edge="1" parent="ax-5jWfEmzY9jY0mhrTK-1">
          <mxGeometry width="50" height="50" relative="1" as="geometry">
            <mxPoint x="182" y="497" as="sourcePoint" />
            <mxPoint x="213" y="497" as="targetPoint" />
          </mxGeometry>
        </mxCell>
        <mxCell id="a60SWCR8j5Pawfycr1LJ-8" style="edgeStyle=orthogonalEdgeStyle;orthogonalLoop=1;jettySize=auto;html=1;exitX=0.5;exitY=1;exitDx=0;exitDy=0;exitPerimeter=0;entryX=0.25;entryY=0;entryDx=0;entryDy=0;fillColor=#d5e8d4;strokeColor=#82B366;curved=1;" edge="1" parent="ax-5jWfEmzY9jY0mhrTK-1" source="ax-5jWfEmzY9jY0mhrTK-44" target="ax-5jWfEmzY9jY0mhrTK-61">
          <mxGeometry relative="1" as="geometry" />
        </mxCell>
        <mxCell id="ax-5jWfEmzY9jY0mhrTK-44" value="S2&lt;br&gt;code" style="shape=card;whiteSpace=wrap;html=1;size=12;" vertex="1" parent="ax-5jWfEmzY9jY0mhrTK-1">
          <mxGeometry x="284.84000000000003" y="425" width="36" height="37" as="geometry" />
        </mxCell>
        <mxCell id="ax-5jWfEmzY9jY0mhrTK-45" value="developer 1" style="sketch=0;pointerEvents=1;shadow=0;dashed=0;html=1;strokeColor=none;fillColor=#505050;labelPosition=center;verticalLabelPosition=bottom;verticalAlign=top;outlineConnect=0;align=center;shape=mxgraph.office.services.user_services;fontSize=14;fontStyle=1" vertex="1" parent="ax-5jWfEmzY9jY0mhrTK-1">
          <mxGeometry x="11" y="575" width="59" height="59" as="geometry" />
        </mxCell>
        <mxCell id="ax-5jWfEmzY9jY0mhrTK-46" value="" style="endArrow=classic;html=1;rounded=0;entryX=1.028;entryY=1.053;entryDx=0;entryDy=0;entryPerimeter=0;" edge="1" parent="ax-5jWfEmzY9jY0mhrTK-1">
          <mxGeometry width="50" height="50" relative="1" as="geometry">
            <mxPoint x="98" y="499" as="sourcePoint" />
            <mxPoint x="125" y="499" as="targetPoint" />
          </mxGeometry>
        </mxCell>
        <mxCell id="ax-5jWfEmzY9jY0mhrTK-47" value="" style="endArrow=classic;html=1;rounded=0;entryX=1.028;entryY=1.053;entryDx=0;entryDy=0;entryPerimeter=0;" edge="1" parent="ax-5jWfEmzY9jY0mhrTK-1">
          <mxGeometry width="50" height="50" relative="1" as="geometry">
            <mxPoint x="98" y="529" as="sourcePoint" />
            <mxPoint x="125" y="529" as="targetPoint" />
          </mxGeometry>
        </mxCell>
        <mxCell id="ax-5jWfEmzY9jY0mhrTK-48" value="" style="endArrow=classic;html=1;rounded=0;entryX=1.028;entryY=1.053;entryDx=0;entryDy=0;entryPerimeter=0;" edge="1" parent="ax-5jWfEmzY9jY0mhrTK-1">
          <mxGeometry width="50" height="50" relative="1" as="geometry">
            <mxPoint x="182" y="533" as="sourcePoint" />
            <mxPoint x="213" y="533" as="targetPoint" />
          </mxGeometry>
        </mxCell>
        <mxCell id="ax-5jWfEmzY9jY0mhrTK-49" value="&lt;font style=&quot;font-size: 16px;&quot;&gt;MVM in machine A&lt;/font&gt;" style="text;html=1;align=center;verticalAlign=middle;resizable=0;points=[];autosize=1;strokeColor=none;fillColor=none;" vertex="1" parent="ax-5jWfEmzY9jY0mhrTK-1">
          <mxGeometry x="328.79999999999995" y="377" width="160" height="30" as="geometry" />
        </mxCell>
        <mxCell id="ax-5jWfEmzY9jY0mhrTK-50" value="VM&lt;br&gt;code" style="shape=card;whiteSpace=wrap;html=1;size=12;" vertex="1" parent="ax-5jWfEmzY9jY0mhrTK-1">
          <mxGeometry x="460" y="426" width="32" height="36" as="geometry" />
        </mxCell>
        <mxCell id="ax-5jWfEmzY9jY0mhrTK-60" value="HM" style="rounded=0;whiteSpace=wrap;html=1;fontSize=16;" vertex="1" parent="ax-5jWfEmzY9jY0mhrTK-1">
          <mxGeometry x="274.67" y="480" width="27.33" height="31" as="geometry" />
        </mxCell>
        <mxCell id="ax-5jWfEmzY9jY0mhrTK-61" value="obj S2" style="rounded=0;whiteSpace=wrap;html=1;fontSize=14;" vertex="1" parent="ax-5jWfEmzY9jY0mhrTK-1">
          <mxGeometry x="301.67" y="480" width="36.33" height="31" as="geometry" />
        </mxCell>
        <mxCell id="ax-5jWfEmzY9jY0mhrTK-62" value="obj S1" style="rounded=0;whiteSpace=wrap;html=1;fontSize=14;" vertex="1" parent="ax-5jWfEmzY9jY0mhrTK-1">
          <mxGeometry x="348" y="480" width="40" height="31" as="geometry" />
        </mxCell>
        <mxCell id="a60SWCR8j5Pawfycr1LJ-9" style="edgeStyle=orthogonalEdgeStyle;orthogonalLoop=1;jettySize=auto;html=1;exitX=0.5;exitY=1;exitDx=0;exitDy=0;exitPerimeter=0;entryX=0.25;entryY=0;entryDx=0;entryDy=0;fillColor=#d5e8d4;strokeColor=#82B366;curved=1;" edge="1" parent="ax-5jWfEmzY9jY0mhrTK-1" source="ax-5jWfEmzY9jY0mhrTK-63" target="ax-5jWfEmzY9jY0mhrTK-62">
          <mxGeometry relative="1" as="geometry" />
        </mxCell>
        <mxCell id="a60SWCR8j5Pawfycr1LJ-10" style="edgeStyle=orthogonalEdgeStyle;orthogonalLoop=1;jettySize=auto;html=1;exitX=0;exitY=1;exitDx=0;exitDy=0;exitPerimeter=0;entryX=0.5;entryY=0;entryDx=0;entryDy=0;curved=1;strokeColor=#82B366;" edge="1" parent="ax-5jWfEmzY9jY0mhrTK-1" source="ax-5jWfEmzY9jY0mhrTK-63" target="ax-5jWfEmzY9jY0mhrTK-61">
          <mxGeometry relative="1" as="geometry" />
        </mxCell>
        <mxCell id="a60SWCR8j5Pawfycr1LJ-89" style="edgeStyle=orthogonalEdgeStyle;orthogonalLoop=1;jettySize=auto;html=1;exitX=1;exitY=1;exitDx=0;exitDy=0;exitPerimeter=0;entryX=0.75;entryY=0;entryDx=0;entryDy=0;curved=1;fillColor=#d5e8d4;strokeColor=#82b366;" edge="1" parent="ax-5jWfEmzY9jY0mhrTK-1" source="ax-5jWfEmzY9jY0mhrTK-63" target="a60SWCR8j5Pawfycr1LJ-5">
          <mxGeometry relative="1" as="geometry">
            <Array as="points">
              <mxPoint x="438" y="462" />
            </Array>
          </mxGeometry>
        </mxCell>
        <mxCell id="ax-5jWfEmzY9jY0mhrTK-63" value="S1&lt;br&gt;code" style="shape=card;whiteSpace=wrap;html=1;size=12;" vertex="1" parent="ax-5jWfEmzY9jY0mhrTK-1">
          <mxGeometry x="336" y="425" width="36" height="37" as="geometry" />
        </mxCell>
        <mxCell id="ax-5jWfEmzY9jY0mhrTK-89" value="Remote&lt;br&gt;object" style="shape=card;whiteSpace=wrap;html=1;size=12;" vertex="1" parent="ax-5jWfEmzY9jY0mhrTK-1">
          <mxGeometry x="403" y="425" width="50" height="37" as="geometry" />
        </mxCell>
        <mxCell id="ax-5jWfEmzY9jY0mhrTK-90" value="" style="sketch=0;pointerEvents=1;shadow=0;dashed=0;html=1;strokeColor=none;fillColor=#505050;labelPosition=center;verticalLabelPosition=bottom;verticalAlign=top;outlineConnect=0;align=center;shape=mxgraph.office.servers.hybrid_server;" vertex="1" parent="ax-5jWfEmzY9jY0mhrTK-1">
          <mxGeometry x="523" y="620" width="40" height="33" as="geometry" />
        </mxCell>
        <mxCell id="ax-5jWfEmzY9jY0mhrTK-93" value="" style="endArrow=none;dashed=1;html=1;dashPattern=1 3;strokeWidth=2;rounded=0;" edge="1" parent="ax-5jWfEmzY9jY0mhrTK-1">
          <mxGeometry width="50" height="50" relative="1" as="geometry">
            <mxPoint x="150" y="320" as="sourcePoint" />
            <mxPoint x="510" y="110" as="targetPoint" />
            <Array as="points">
              <mxPoint x="370" y="110" />
            </Array>
          </mxGeometry>
        </mxCell>
        <mxCell id="ax-5jWfEmzY9jY0mhrTK-94" value="" style="endArrow=none;dashed=1;html=1;dashPattern=1 3;strokeWidth=2;rounded=0;" edge="1" parent="ax-5jWfEmzY9jY0mhrTK-1">
          <mxGeometry width="50" height="50" relative="1" as="geometry">
            <mxPoint x="150" y="320" as="sourcePoint" />
            <mxPoint x="510" y="110" as="targetPoint" />
            <Array as="points">
              <mxPoint x="460" y="320" />
            </Array>
          </mxGeometry>
        </mxCell>
        <mxCell id="ax-5jWfEmzY9jY0mhrTK-95" value="" style="shape=mxgraph.arrows2.wedgeArrow;html=1;bendable=0;startWidth=12;fillColor=strokeColor;defaultFillColor=invert;defaultGradientColor=invert;rounded=0;shadow=1;opacity=20;" edge="1" parent="ax-5jWfEmzY9jY0mhrTK-1">
          <mxGeometry width="100" height="100" relative="1" as="geometry">
            <mxPoint x="430" y="360" as="sourcePoint" />
            <mxPoint x="410.3" y="240" as="targetPoint" />
          </mxGeometry>
        </mxCell>
        <mxCell id="a60SWCR8j5Pawfycr1LJ-0" value="" style="group" vertex="1" connectable="0" parent="ax-5jWfEmzY9jY0mhrTK-1">
          <mxGeometry x="395" y="530" width="101" height="110" as="geometry" />
        </mxCell>
        <mxCell id="ax-5jWfEmzY9jY0mhrTK-37" value="" style="shape=table;startSize=0;container=1;collapsible=0;childLayout=tableLayout;fontSize=16;" vertex="1" parent="a60SWCR8j5Pawfycr1LJ-0">
          <mxGeometry width="90" height="95" as="geometry" />
        </mxCell>
        <mxCell id="ax-5jWfEmzY9jY0mhrTK-38" value="" style="shape=tableRow;horizontal=0;startSize=0;swimlaneHead=0;swimlaneBody=0;strokeColor=inherit;top=0;left=0;bottom=0;right=0;collapsible=0;dropTarget=0;fillColor=none;points=[[0,0.5],[1,0.5]];portConstraint=eastwest;fontSize=16;" vertex="1" parent="ax-5jWfEmzY9jY0mhrTK-37">
          <mxGeometry width="90" height="25" as="geometry" />
        </mxCell>
        <mxCell id="ax-5jWfEmzY9jY0mhrTK-39" value="VM GPA list" style="shape=partialRectangle;html=1;whiteSpace=wrap;connectable=0;strokeColor=inherit;overflow=hidden;fillColor=none;top=0;left=0;bottom=0;right=0;pointerEvents=1;fontSize=16;" vertex="1" parent="ax-5jWfEmzY9jY0mhrTK-38">
          <mxGeometry width="90" height="25" as="geometry">
            <mxRectangle width="90" height="25" as="alternateBounds" />
          </mxGeometry>
        </mxCell>
        <mxCell id="ax-5jWfEmzY9jY0mhrTK-40" style="shape=tableRow;horizontal=0;startSize=0;swimlaneHead=0;swimlaneBody=0;strokeColor=inherit;top=0;left=0;bottom=0;right=0;collapsible=0;dropTarget=0;fillColor=none;points=[[0,0.5],[1,0.5]];portConstraint=eastwest;fontSize=16;" vertex="1" parent="ax-5jWfEmzY9jY0mhrTK-37">
          <mxGeometry y="25" width="90" height="70" as="geometry" />
        </mxCell>
        <mxCell id="ax-5jWfEmzY9jY0mhrTK-41" style="shape=partialRectangle;html=1;whiteSpace=wrap;connectable=0;strokeColor=inherit;overflow=hidden;fillColor=none;top=0;left=0;bottom=0;right=0;pointerEvents=1;fontSize=16;" vertex="1" parent="ax-5jWfEmzY9jY0mhrTK-40">
          <mxGeometry width="90" height="70" as="geometry">
            <mxRectangle width="90" height="70" as="alternateBounds" />
          </mxGeometry>
        </mxCell>
        <mxCell id="ax-5jWfEmzY9jY0mhrTK-43" value="GPA&lt;br&gt;S2" style="shape=note;whiteSpace=wrap;html=1;backgroundOutline=1;darkOpacity=0.05;size=10;" vertex="1" parent="a60SWCR8j5Pawfycr1LJ-0">
          <mxGeometry x="2" y="31" width="30" height="40" as="geometry" />
        </mxCell>
        <mxCell id="ax-5jWfEmzY9jY0mhrTK-58" value="GPA&lt;br&gt;S1" style="shape=note;whiteSpace=wrap;html=1;backgroundOutline=1;darkOpacity=0.05;size=10;" vertex="1" parent="a60SWCR8j5Pawfycr1LJ-0">
          <mxGeometry x="25.5" y="45" width="30" height="40" as="geometry" />
        </mxCell>
        <mxCell id="ax-5jWfEmzY9jY0mhrTK-92" value="GPA&lt;br&gt;S3" style="shape=note;whiteSpace=wrap;html=1;backgroundOutline=1;darkOpacity=0.05;size=10;" vertex="1" parent="a60SWCR8j5Pawfycr1LJ-0">
          <mxGeometry x="55.500000000000014" y="30" width="30" height="40" as="geometry" />
        </mxCell>
        <mxCell id="a60SWCR8j5Pawfycr1LJ-1" value="LOM" style="group;labelPosition=center;verticalLabelPosition=bottom;align=center;verticalAlign=top;fontSize=14;spacing=-5;strokeWidth=1;" vertex="1" connectable="0" parent="ax-5jWfEmzY9jY0mhrTK-1">
          <mxGeometry x="285.3" y="643" width="190" height="40" as="geometry" />
        </mxCell>
        <mxCell id="ax-5jWfEmzY9jY0mhrTK-53" value="" style="rounded=1;whiteSpace=wrap;html=1;" vertex="1" parent="a60SWCR8j5Pawfycr1LJ-1">
          <mxGeometry width="190" height="40" as="geometry" />
        </mxCell>
        <mxCell id="ax-5jWfEmzY9jY0mhrTK-55" value="GPA&lt;br&gt;checker" style="rounded=1;whiteSpace=wrap;html=1;" vertex="1" parent="a60SWCR8j5Pawfycr1LJ-1">
          <mxGeometry x="70" y="5" width="50" height="30" as="geometry" />
        </mxCell>
        <mxCell id="ax-5jWfEmzY9jY0mhrTK-56" value="vm&lt;br&gt;loader" style="rounded=1;whiteSpace=wrap;html=1;" vertex="1" parent="a60SWCR8j5Pawfycr1LJ-1">
          <mxGeometry x="10.829999999999998" y="5" width="49.17" height="30" as="geometry" />
        </mxCell>
        <mxCell id="ax-5jWfEmzY9jY0mhrTK-57" value="runtime&lt;br&gt;guard" style="rounded=1;whiteSpace=wrap;html=1;" vertex="1" parent="a60SWCR8j5Pawfycr1LJ-1">
          <mxGeometry x="130" y="5" width="50" height="30" as="geometry" />
        </mxCell>
        <mxCell id="a60SWCR8j5Pawfycr1LJ-2" value="" style="rounded=0;whiteSpace=wrap;html=1;fontSize=14;" vertex="1" parent="ax-5jWfEmzY9jY0mhrTK-1">
          <mxGeometry x="337.97" y="480" width="10.03" height="31" as="geometry" />
        </mxCell>
        <mxCell id="a60SWCR8j5Pawfycr1LJ-3" value="" style="rounded=0;whiteSpace=wrap;html=1;fontSize=14;" vertex="1" parent="ax-5jWfEmzY9jY0mhrTK-1">
          <mxGeometry x="387.97" y="480" width="20.03" height="31" as="geometry" />
        </mxCell>
        <mxCell id="a60SWCR8j5Pawfycr1LJ-80" style="edgeStyle=orthogonalEdgeStyle;rounded=0;orthogonalLoop=1;jettySize=auto;html=1;exitX=0.5;exitY=1;exitDx=0;exitDy=0;startArrow=classic;startFill=1;endArrow=none;endFill=0;dashed=1;" edge="1" parent="ax-5jWfEmzY9jY0mhrTK-1">
          <mxGeometry relative="1" as="geometry">
            <mxPoint x="428" y="508" as="sourcePoint" />
            <mxPoint x="527" y="527" as="targetPoint" />
            <Array as="points">
              <mxPoint x="428" y="527" />
            </Array>
          </mxGeometry>
        </mxCell>
        <mxCell id="a60SWCR8j5Pawfycr1LJ-5" value="obj S3" style="rounded=0;whiteSpace=wrap;html=1;fontSize=14;" vertex="1" parent="ax-5jWfEmzY9jY0mhrTK-1">
          <mxGeometry x="408" y="480" width="40" height="31" as="geometry" />
        </mxCell>
        <mxCell id="a60SWCR8j5Pawfycr1LJ-6" value="" style="rounded=0;whiteSpace=wrap;html=1;fontSize=14;" vertex="1" parent="ax-5jWfEmzY9jY0mhrTK-1">
          <mxGeometry x="447.97" y="480" width="9.03" height="31" as="geometry" />
        </mxCell>
        <mxCell id="a60SWCR8j5Pawfycr1LJ-7" value="obj" style="rounded=0;whiteSpace=wrap;html=1;fontSize=14;" vertex="1" parent="ax-5jWfEmzY9jY0mhrTK-1">
          <mxGeometry x="457" y="480" width="40" height="31" as="geometry" />
        </mxCell>
        <mxCell id="a60SWCR8j5Pawfycr1LJ-43" value="" style="sketch=0;pointerEvents=1;shadow=0;dashed=0;html=1;strokeColor=none;fillColor=#505050;labelPosition=center;verticalLabelPosition=bottom;verticalAlign=top;outlineConnect=0;align=center;shape=mxgraph.office.servers.server_generic;" vertex="1" parent="ax-5jWfEmzY9jY0mhrTK-1">
          <mxGeometry x="563" y="354.5" width="81" height="121" as="geometry" />
        </mxCell>
        <mxCell id="a60SWCR8j5Pawfycr1LJ-44" value="" style="rounded=0;whiteSpace=wrap;html=1;strokeWidth=4;" vertex="1" parent="ax-5jWfEmzY9jY0mhrTK-1">
          <mxGeometry x="583" y="416.5" width="234" height="283" as="geometry" />
        </mxCell>
        <mxCell id="a60SWCR8j5Pawfycr1LJ-47" value="&lt;font style=&quot;font-size: 16px;&quot;&gt;MVM in machine B&lt;/font&gt;" style="text;html=1;align=center;verticalAlign=middle;resizable=0;points=[];autosize=1;strokeColor=none;fillColor=none;" vertex="1" parent="ax-5jWfEmzY9jY0mhrTK-1">
          <mxGeometry x="640.8" y="376.5" width="160" height="30" as="geometry" />
        </mxCell>
        <mxCell id="a60SWCR8j5Pawfycr1LJ-49" value="HM" style="rounded=0;whiteSpace=wrap;html=1;fontSize=16;" vertex="1" parent="ax-5jWfEmzY9jY0mhrTK-1">
          <mxGeometry x="586.6700000000001" y="479.5" width="27.33" height="31" as="geometry" />
        </mxCell>
        <mxCell id="a60SWCR8j5Pawfycr1LJ-79" style="edgeStyle=orthogonalEdgeStyle;rounded=0;orthogonalLoop=1;jettySize=auto;html=1;exitX=0.5;exitY=1;exitDx=0;exitDy=0;dashed=1;" edge="1" parent="ax-5jWfEmzY9jY0mhrTK-1" source="a60SWCR8j5Pawfycr1LJ-51" target="a60SWCR8j5Pawfycr1LJ-78">
          <mxGeometry relative="1" as="geometry">
            <Array as="points">
              <mxPoint x="674" y="521" />
            </Array>
          </mxGeometry>
        </mxCell>
        <mxCell id="a60SWCR8j5Pawfycr1LJ-51" value="obj S3" style="rounded=0;whiteSpace=wrap;html=1;fontSize=14;" vertex="1" parent="ax-5jWfEmzY9jY0mhrTK-1">
          <mxGeometry x="654" y="479.5" width="40" height="31" as="geometry" />
        </mxCell>
        <mxCell id="a60SWCR8j5Pawfycr1LJ-52" style="edgeStyle=orthogonalEdgeStyle;orthogonalLoop=1;jettySize=auto;html=1;exitX=0.5;exitY=1;exitDx=0;exitDy=0;exitPerimeter=0;entryX=0.25;entryY=0;entryDx=0;entryDy=0;fillColor=#d5e8d4;strokeColor=#82B366;curved=1;" edge="1" parent="ax-5jWfEmzY9jY0mhrTK-1" source="a60SWCR8j5Pawfycr1LJ-54" target="a60SWCR8j5Pawfycr1LJ-51">
          <mxGeometry relative="1" as="geometry" />
        </mxCell>
        <mxCell id="a60SWCR8j5Pawfycr1LJ-54" value="S3&lt;br&gt;code" style="shape=card;whiteSpace=wrap;html=1;size=12;" vertex="1" parent="ax-5jWfEmzY9jY0mhrTK-1">
          <mxGeometry x="656" y="427.5" width="36" height="37" as="geometry" />
        </mxCell>
        <mxCell id="a60SWCR8j5Pawfycr1LJ-56" value="" style="group" vertex="1" connectable="0" parent="ax-5jWfEmzY9jY0mhrTK-1">
          <mxGeometry x="707" y="529.5" width="101" height="110" as="geometry" />
        </mxCell>
        <mxCell id="a60SWCR8j5Pawfycr1LJ-57" value="" style="shape=table;startSize=0;container=1;collapsible=0;childLayout=tableLayout;fontSize=16;" vertex="1" parent="a60SWCR8j5Pawfycr1LJ-56">
          <mxGeometry width="90" height="95" as="geometry" />
        </mxCell>
        <mxCell id="a60SWCR8j5Pawfycr1LJ-58" value="" style="shape=tableRow;horizontal=0;startSize=0;swimlaneHead=0;swimlaneBody=0;strokeColor=inherit;top=0;left=0;bottom=0;right=0;collapsible=0;dropTarget=0;fillColor=none;points=[[0,0.5],[1,0.5]];portConstraint=eastwest;fontSize=16;" vertex="1" parent="a60SWCR8j5Pawfycr1LJ-57">
          <mxGeometry width="90" height="25" as="geometry" />
        </mxCell>
        <mxCell id="a60SWCR8j5Pawfycr1LJ-59" value="VM GPA list" style="shape=partialRectangle;html=1;whiteSpace=wrap;connectable=0;strokeColor=inherit;overflow=hidden;fillColor=none;top=0;left=0;bottom=0;right=0;pointerEvents=1;fontSize=16;" vertex="1" parent="a60SWCR8j5Pawfycr1LJ-58">
          <mxGeometry width="90" height="25" as="geometry">
            <mxRectangle width="90" height="25" as="alternateBounds" />
          </mxGeometry>
        </mxCell>
        <mxCell id="a60SWCR8j5Pawfycr1LJ-60" style="shape=tableRow;horizontal=0;startSize=0;swimlaneHead=0;swimlaneBody=0;strokeColor=inherit;top=0;left=0;bottom=0;right=0;collapsible=0;dropTarget=0;fillColor=none;points=[[0,0.5],[1,0.5]];portConstraint=eastwest;fontSize=16;" vertex="1" parent="a60SWCR8j5Pawfycr1LJ-57">
          <mxGeometry y="25" width="90" height="70" as="geometry" />
        </mxCell>
        <mxCell id="a60SWCR8j5Pawfycr1LJ-61" style="shape=partialRectangle;html=1;whiteSpace=wrap;connectable=0;strokeColor=inherit;overflow=hidden;fillColor=none;top=0;left=0;bottom=0;right=0;pointerEvents=1;fontSize=16;" vertex="1" parent="a60SWCR8j5Pawfycr1LJ-60">
          <mxGeometry width="90" height="70" as="geometry">
            <mxRectangle width="90" height="70" as="alternateBounds" />
          </mxGeometry>
        </mxCell>
        <mxCell id="a60SWCR8j5Pawfycr1LJ-63" value="GPA&lt;br&gt;S3" style="shape=note;whiteSpace=wrap;html=1;backgroundOutline=1;darkOpacity=0.05;size=10;" vertex="1" parent="a60SWCR8j5Pawfycr1LJ-56">
          <mxGeometry x="25.5" y="45" width="30" height="40" as="geometry" />
        </mxCell>
        <mxCell id="a60SWCR8j5Pawfycr1LJ-65" value="LOM" style="group;labelPosition=center;verticalLabelPosition=bottom;align=center;verticalAlign=top;fontSize=14;spacing=-5;" vertex="1" connectable="0" parent="ax-5jWfEmzY9jY0mhrTK-1">
          <mxGeometry x="597.3" y="642.5" width="190" height="40" as="geometry" />
        </mxCell>
        <mxCell id="a60SWCR8j5Pawfycr1LJ-66" value="" style="rounded=1;whiteSpace=wrap;html=1;" vertex="1" parent="a60SWCR8j5Pawfycr1LJ-65">
          <mxGeometry width="190" height="40" as="geometry" />
        </mxCell>
        <mxCell id="a60SWCR8j5Pawfycr1LJ-67" value="GPA&lt;br&gt;checker" style="rounded=1;whiteSpace=wrap;html=1;" vertex="1" parent="a60SWCR8j5Pawfycr1LJ-65">
          <mxGeometry x="70" y="5" width="50" height="30" as="geometry" />
        </mxCell>
        <mxCell id="a60SWCR8j5Pawfycr1LJ-68" value="vm&lt;br&gt;loader" style="rounded=1;whiteSpace=wrap;html=1;" vertex="1" parent="a60SWCR8j5Pawfycr1LJ-65">
          <mxGeometry x="10.829999999999998" y="5" width="49.17" height="30" as="geometry" />
        </mxCell>
        <mxCell id="a60SWCR8j5Pawfycr1LJ-69" value="runtime&lt;br&gt;guard" style="rounded=1;whiteSpace=wrap;html=1;" vertex="1" parent="a60SWCR8j5Pawfycr1LJ-65">
          <mxGeometry x="130" y="5" width="50" height="30" as="geometry" />
        </mxCell>
        <mxCell id="a60SWCR8j5Pawfycr1LJ-70" value="" style="rounded=0;whiteSpace=wrap;html=1;fontSize=14;" vertex="1" parent="ax-5jWfEmzY9jY0mhrTK-1">
          <mxGeometry x="614" y="479.5" width="40" height="31" as="geometry" />
        </mxCell>
        <mxCell id="a60SWCR8j5Pawfycr1LJ-73" value="" style="rounded=0;whiteSpace=wrap;html=1;fontSize=14;" vertex="1" parent="ax-5jWfEmzY9jY0mhrTK-1">
          <mxGeometry x="694" y="479.5" width="69" height="31" as="geometry" />
        </mxCell>
        <mxCell id="a60SWCR8j5Pawfycr1LJ-74" value="obj" style="rounded=0;whiteSpace=wrap;html=1;fontSize=14;" vertex="1" parent="ax-5jWfEmzY9jY0mhrTK-1">
          <mxGeometry x="763" y="479.5" width="40" height="31" as="geometry" />
        </mxCell>
        <mxCell id="a60SWCR8j5Pawfycr1LJ-75" value="VM&lt;br&gt;code" style="shape=card;whiteSpace=wrap;html=1;size=12;" vertex="1" parent="ax-5jWfEmzY9jY0mhrTK-1">
          <mxGeometry x="767" y="429" width="32" height="36" as="geometry" />
        </mxCell>
        <mxCell id="a60SWCR8j5Pawfycr1LJ-76" style="edgeStyle=orthogonalEdgeStyle;rounded=0;orthogonalLoop=1;jettySize=auto;html=1;exitX=0;exitY=0.5;exitDx=0;exitDy=0;exitPerimeter=0;dashed=1;" edge="1" parent="ax-5jWfEmzY9jY0mhrTK-1" source="a60SWCR8j5Pawfycr1LJ-63" target="ax-5jWfEmzY9jY0mhrTK-90">
          <mxGeometry relative="1" as="geometry">
            <Array as="points">
              <mxPoint x="720" y="595" />
              <mxPoint x="720" y="637" />
            </Array>
          </mxGeometry>
        </mxCell>
        <mxCell id="a60SWCR8j5Pawfycr1LJ-77" style="edgeStyle=orthogonalEdgeStyle;rounded=0;orthogonalLoop=1;jettySize=auto;html=1;exitX=0;exitY=0;exitDx=30;exitDy=25;exitPerimeter=0;startArrow=classic;startFill=1;endArrow=none;endFill=0;dashed=1;" edge="1" parent="ax-5jWfEmzY9jY0mhrTK-1" source="ax-5jWfEmzY9jY0mhrTK-92" target="ax-5jWfEmzY9jY0mhrTK-90">
          <mxGeometry relative="1" as="geometry" />
        </mxCell>
        <mxCell id="a60SWCR8j5Pawfycr1LJ-78" value="" style="sketch=0;pointerEvents=1;shadow=0;dashed=0;html=1;strokeColor=none;fillColor=#505050;labelPosition=center;verticalLabelPosition=bottom;verticalAlign=top;outlineConnect=0;align=center;shape=mxgraph.office.servers.hybrid_server;" vertex="1" parent="ax-5jWfEmzY9jY0mhrTK-1">
          <mxGeometry x="527" y="504.5" width="40" height="33" as="geometry" />
        </mxCell>
        <mxCell id="a60SWCR8j5Pawfycr1LJ-88" value="" style="endArrow=classic;html=1;exitX=0.5;exitY=1;exitDx=0;exitDy=0;exitPerimeter=0;entryX=0.25;entryY=0;entryDx=0;entryDy=0;curved=1;fillColor=#f8cecc;strokeColor=#b85450;" edge="1" parent="ax-5jWfEmzY9jY0mhrTK-1" source="ax-5jWfEmzY9jY0mhrTK-44" target="a60SWCR8j5Pawfycr1LJ-5">
          <mxGeometry width="50" height="50" relative="1" as="geometry">
            <mxPoint x="430" y="530" as="sourcePoint" />
            <mxPoint x="480" y="480" as="targetPoint" />
          </mxGeometry>
        </mxCell>
        <mxCell id="a60SWCR8j5Pawfycr1LJ-90" style="edgeStyle=orthogonalEdgeStyle;rounded=0;orthogonalLoop=1;jettySize=auto;html=1;exitX=0.25;exitY=0;exitDx=0;exitDy=0;entryX=0.75;entryY=1;entryDx=0;entryDy=0;endSize=11;startSize=11;jumpSize=11;" edge="1" parent="ax-5jWfEmzY9jY0mhrTK-1">
          <mxGeometry relative="1" as="geometry">
            <mxPoint x="367.79999999999995" y="643" as="sourcePoint" />
            <mxPoint x="363.9175" y="511" as="targetPoint" />
            <Array as="points">
              <mxPoint x="364" y="643" />
            </Array>
          </mxGeometry>
        </mxCell>
      </root>
    </mxGraphModel>
  </diagram>
</mxfile>
